<?xml version="1.0" standalone="no"?>
<!DOCTYPE svg PUBLIC "-//W3C//DTD SVG 1.1//EN" "http://www.w3.org/Graphics/SVG/1.1/DTD/svg11.dtd" >
<svg xmlns="http://www.w3.org/2000/svg" xmlns:xlink="http://www.w3.org/1999/xlink" version="1.1">
<metadata>
Created by FontForge 20161003 at Tue Nov 15 10:43:06 2016
 By www-data
Digitized data (C) 2004 Agfa Monotype Corporation. Neo Tech(TM) is a trademark of Agfa Monotype Corporation and may be registered in certain jurisdictions.  All rights reserved. Neo Tech is designed by Sebastian Lester.
</metadata>
<defs>
<font id="AM277" horiz-adv-x="1239" >
  <font-face 
    font-family="AM277"
    font-weight="400"
    font-stretch="normal"
    units-per-em="2048"
    panose-1="2 11 5 3 2 2 2 2 2 4"
    ascent="1638"
    descent="-410"
    x-height="1126"
    cap-height="1522"
    bbox="-254 -442 2230 2007"
    underline-thickness="102"
    underline-position="-358"
    unicode-range="U+0020-F006"
  />
<missing-glyph horiz-adv-x="1024" 
d="M51 0v1536h922v-1536h-922zM179 128h666v1280h-666v-1280z" />
    <glyph glyph-name=".notdef" horiz-adv-x="1024" 
d="M51 0v1536h922v-1536h-922zM179 128h666v1280h-666v-1280z" />
    <glyph glyph-name=".null" horiz-adv-x="0" 
 />
    <glyph glyph-name="nonmarkingreturn" horiz-adv-x="559" 
 />
    <glyph glyph-name="space" unicode=" " horiz-adv-x="559" 
 />
    <glyph glyph-name="exclam" unicode="!" horiz-adv-x="444" 
d="M315 1501l-16 -1065q0 -16 -11.5 -27.5t-27.5 -11.5h-74q-14 0 -27.5 11.5t-13.5 27.5l-14 1065q0 17 13 28t28 11h102q17 0 29 -11t12 -28zM311 39q0 -17 -11 -28t-28 -11h-98q-16 0 -27.5 11.5t-11.5 27.5v192q0 16 11 27.5t28 11.5h98q16 0 27.5 -10.5t11.5 -28.5
v-192z" />
    <glyph glyph-name="quotedbl" unicode="&#x22;" horiz-adv-x="778" 
d="M709 1518q0 -11 -2 -17l-119 -387q-11 -39 -39 -39h-96q-19 0 -19 21q0 12 2 18l94 387q9 39 41 39h115q23 0 23 -22zM360 1518q0 -11 -2 -17l-118 -387q-12 -39 -39 -39h-97q-18 0 -18 21q0 12 2 18l94 387q8 39 41 39h115q22 0 22 -22z" />
    <glyph glyph-name="numbersign" unicode="#" horiz-adv-x="1352" 
d="M1249 1049v-5l-4 -45q-3 -38 -41 -38h-198l-37 -414h200q15 0 24 -11t9 -28v-4l-4 -43q-3 -39 -41 -39h-201l-32 -383q-4 -39 -37 -39h-90q-33 0 -33 35v4l33 383h-318l-33 -383q-4 -39 -36 -39h-93q-13 0 -22.5 11.5t-9.5 23.5v4l32 383h-190q-15 0 -24 11.5t-9 27.5v4
l4 43q2 17 13 28t28 11h191l37 414h-193q-14 0 -23.5 11.5t-9.5 26.5v5l4 45q2 17 13 27.5t28 10.5h191l35 396q1 15 12.5 27t26.5 12h92q14 0 22 -10.5t8 -24.5v-4l-34 -396h317l35 396q4 39 39 39h90q31 0 31 -35v-4l-35 -396h201q15 0 23.5 -11t8.5 -27zM846 961h-318
l-36 -414h317z" />
    <glyph glyph-name="dollar" unicode="$" 
d="M1081 395q0 -151 -84.5 -261.5t-289.5 -139.5v-193q0 -15 -13 -28t-28 -13h-97q-15 0 -28 13t-13 28v185q-148 2 -292 28q-24 4 -31.5 11.5t-7.5 25.5v84q0 33 34 33h7q212 -18 337 -18q173 0 242.5 63t69.5 182q0 50 -22.5 91t-74.5 83t-149 101l-199 121
q-96 59 -158 115.5t-93 121.5t-31 146q0 104 43 179t124 118.5t201 58.5v176q0 17 12 29t29 12h97q17 0 29 -12t12 -29v-170q170 -6 299 -27q34 -7 34 -34v-89q0 -15 -9 -23.5t-25 -8.5h-5q-270 18 -352 18q-110 0 -174.5 -19t-95.5 -62t-31 -117q0 -69 49.5 -120.5
t173.5 -127.5l189 -113q176 -103 248.5 -199t72.5 -219z" />
    <glyph glyph-name="percent" unicode="%" horiz-adv-x="1626" 
d="M1534 317q0 -165 -71 -248t-203 -83q-86 0 -148.5 36t-95.5 110.5t-33 184.5v191q0 112 33 186t95.5 110t148.5 36q87 0 148.5 -36.5t93.5 -110t32 -185.5v-191zM1331 1509q0 -6 -10 -26l-856 -1450q-15 -25 -23 -33t-22 -8h-101q-20 0 -20 16q0 14 8 25l856 1450
q18 26 25 32.5t22 6.5h105q16 0 16 -13zM643 1016q0 -164 -71 -248t-203 -84q-86 0 -148.5 37t-95.5 112t-33 183v190q0 167 72.5 248.5t204.5 81.5t203 -81.5t71 -248.5v-190zM1407 317v191q0 215 -147 215q-150 0 -150 -215v-191q0 -215 150 -215q147 0 147 215zM516 1016
v190q0 215 -147 215q-150 0 -150 -215v-190q0 -215 150 -215q147 0 147 215z" />
    <glyph glyph-name="ampersand" unicode="&#x26;" horiz-adv-x="1303" 
d="M1266 729q0 -16 -11 -25.5t-28 -9.5h-187v-653q0 -13 -8 -25t-22 -14q-80 -6 -142.5 -9.5t-113 -5t-142.5 -1.5q-105 0 -197 26t-163 82.5t-111.5 148t-40.5 218.5q0 88 33.5 171.5t91.5 143.5q-56 67 -89.5 152.5t-33.5 175.5q0 241 130.5 336.5t379.5 95.5
q108 0 192.5 -5t135.5 -12.5t76 -15.5q17 -5 20.5 -9t3.5 -17v-86q0 -13 -8.5 -21t-21.5 -8h-398q-126 0 -194 -18.5t-99.5 -74t-31.5 -165.5q0 -67 22.5 -134.5t61.5 -117.5h856q17 0 28 -10t11 -27v-86zM864 158v536h-493q-45 -54 -64.5 -109t-19.5 -124q0 -167 87.5 -235
t237.5 -68h252z" />
    <glyph glyph-name="quotesingle" unicode="'" horiz-adv-x="430" 
d="M360 1518q0 -11 -2 -17l-118 -387q-12 -39 -39 -39h-97q-18 0 -18 21q0 12 2 18l94 387q8 39 41 39h115q22 0 22 -22z" />
    <glyph glyph-name="parenleft" unicode="(" horiz-adv-x="625" 
d="M573 -412q0 -16 -20 -16h-96q-16 0 -26.5 4.5t-20.5 17.5q-135 165 -211 420t-76 529v26q0 274 76 529t211 420q18 22 47 22h96q20 0 20 -16q0 -12 -6 -21q-67 -100 -116.5 -208.5t-82 -223.5t-49 -243t-16.5 -259v-26q0 -546 264 -934q6 -9 6 -21z" />
    <glyph glyph-name="parenright" unicode=")" horiz-adv-x="625" 
d="M530 543q0 -139 -19.5 -274t-55.5 -256t-90.5 -230t-120.5 -189q-10 -13 -20.5 -17.5t-26.5 -4.5h-97q-20 0 -20 16q0 12 6 21q264 388 264 934v26q0 142 -17.5 269t-50.5 242t-82.5 222.5t-113.5 200.5q-6 9 -6 21q0 16 20 16h97q28 0 47 -22q89 -110 153.5 -260.5
t98.5 -328.5t34 -360v-26z" />
    <glyph glyph-name="asterisk" unicode="*" horiz-adv-x="952" 
d="M858 1225q0 -21 -29 -31l-256 -80l158 -217q10 -13 10 -27q0 -13 -12 -22l-49 -37q-9 -6 -16 -6q-18 0 -31 20l-156 217l-155 -217q-15 -20 -31 -20q-6 0 -17 6l-51 37q-12 9 -12 22q0 14 10 27l160 217l-254 80q-31 12 -31 31q1 3 1.5 5t0.5 5l19 59q6 21 26 21
q7 0 19 -4l256 -84l-2 268q0 39 30 39h62q31 0 31 -39l-2 -268l256 84q12 4 18 4q21 0 27 -21l18 -59q2 -4 2 -10z" />
    <glyph glyph-name="plus" unicode="+" 
d="M1085 760q0 -33 -41 -33h-352v-350q0 -41 -33 -41h-81q-33 0 -33 41v350h-350q-41 0 -41 33v82q0 32 41 32h350v353q0 41 33 41h81q33 0 33 -41v-353h352q41 0 41 -32v-82z" />
    <glyph glyph-name="comma" unicode="," horiz-adv-x="438" 
d="M346 242q0 -5 -4 -17l-154 -387q-9 -23 -16 -31t-22 -8h-84q-25 0 -25 25q0 10 2 14l117 387q12 39 41 39h118q27 0 27 -22z" />
    <glyph glyph-name="hyphen" unicode="-" horiz-adv-x="682" 
d="M584 559q0 -16 -11.5 -25.5t-27.5 -9.5h-408q-39 0 -39 35v80q0 15 11 26t28 11h408q18 0 28.5 -9.5t10.5 -27.5v-80z" />
    <glyph glyph-name="period" unicode="." horiz-adv-x="438" 
d="M307 43q0 -18 -11.5 -29.5t-27.5 -11.5h-98q-15 0 -27 12t-12 29v190q0 16 11 27.5t28 11.5h98q16 0 27.5 -10.5t11.5 -28.5v-190z" />
    <glyph glyph-name="slash" unicode="/" horiz-adv-x="727" 
d="M682 1493q0 -8 -2 -12l-463 -1440q-12 -41 -37 -41h-104q-13 0 -21 9t-8 20q0 8 2 12l465 1440q12 41 35 41h104q13 0 21 -8.5t8 -20.5z" />
    <glyph glyph-name="zero" unicode="0" 
d="M1122 623q0 -330 -129.5 -483.5t-371.5 -153.5q-117 0 -209.5 36t-158 113t-101 199t-35.5 289v276q0 329 131 483t373 154t371.5 -153.5t129.5 -483.5v-276zM936 623v276q0 166 -37.5 273.5t-108.5 156.5t-169 49t-169.5 -49t-109 -156.5t-37.5 -273.5v-276
q0 -167 37.5 -274.5t109 -156.5t169.5 -49t169 49t108.5 156.5t37.5 274.5z" />
    <glyph glyph-name="one" unicode="1" horiz-adv-x="879" 
d="M600 41q0 -18 -10 -29.5t-27 -11.5h-112q-17 0 -27 12t-10 29v1288l-264 -115q-16 -6 -27 -6q-19 0 -19 23v104q0 15 21 27l309 147q25 13 43 13h84q16 0 27.5 -10.5t11.5 -28.5v-1442z" />
    <glyph glyph-name="two" unicode="2" 
d="M1077 1169q0 -120 -59.5 -207t-206.5 -188l-197 -133q-111 -75 -173.5 -140.5t-87.5 -135t-25 -160.5v-43h690q17 0 29 -9.5t12 -25.5v-90q0 -17 -12.5 -27t-28.5 -10h-813q-18 0 -29.5 11.5t-11.5 27.5v166q0 81 18.5 155t55 139t96 126.5t143.5 117.5l207 140
q130 87 170.5 141t40.5 145q0 113 -71.5 162t-235.5 49q-147 0 -363 -30h-8q-33 0 -33 36v72q0 29 39 37q159 41 365 41q249 0 369 -89t120 -278z" />
    <glyph glyph-name="three" unicode="3" 
d="M1067 424q0 -148 -64 -246.5t-177.5 -145t-268.5 -46.5q-171 0 -346 41q-39 7 -39 39v69q0 35 35 35h6q223 -29 344 -29q167 0 243.5 67.5t76.5 215.5v43q0 60 -22.5 116.5t-76.5 95t-141 38.5h-352q-39 0 -39 37v71q0 17 11 28t28 11h352q92 0 145.5 36t74 91.5
t20.5 116.5v29q0 128 -74 185.5t-246 57.5q-40 0 -105.5 -4.5t-120.5 -11.5t-118 -14h-6q-35 0 -35 34v72q0 13 11.5 24.5t27.5 14.5q191 41 346 41q159 0 272.5 -38t175.5 -127t62 -234v-29q0 -53 -12.5 -99.5t-37.5 -88t-62 -75.5t-83 -57q102 -49 148.5 -135t46.5 -186
v-43z" />
    <glyph glyph-name="four" unicode="4" 
d="M1161 442q0 -36 -39 -36h-178v-365q0 -17 -9.5 -29t-25.5 -12h-118q-35 0 -35 41v365h-592q-47 0 -65.5 18t-18.5 61v78q0 43 24 76l607 850q21 33 59 33h121q53 0 53 -45v-916h178q17 0 28 -9.5t11 -27.5v-82zM758 561v701q0 12 -8 12h-2q-9 0 -17 -12l-473 -672
q-6 -9 -6 -17q0 -12 16 -12h490z" />
    <glyph glyph-name="five" unicode="5" 
d="M1081 463q0 -150 -61 -257.5t-178.5 -163.5t-282.5 -56q-209 0 -360 37q-39 10 -39 40v76q0 31 30 31h11q163 -29 358 -29q334 0 334 322v31q0 151 -98.5 212.5t-329.5 61.5h-246q-13 0 -23 11t-10 24v2l58 682q2 15 14 25t27 10h704q19 0 30 -9t11 -26v-90
q0 -33 -41 -33h-588l-32 -442h96q200 0 335.5 -40t208 -135.5t72.5 -252.5v-31z" />
    <glyph glyph-name="six" unicode="6" 
d="M1118 504q0 -164 -55.5 -280t-167 -177t-277.5 -61q-116 0 -207.5 35.5t-156 108t-98 181.5t-33.5 256v359q0 217 59.5 351.5t178.5 196.5t296 62q198 0 353 -35q24 -6 35.5 -14t11.5 -25v-80q0 -36 -37 -36q-3 1 -5.5 1.5t-6.5 0.5q-168 32 -351 32q-148 0 -225.5 -55
t-101 -150.5t-23.5 -248.5v-23q181 41 309 41q143 0 255.5 -40t179.5 -135.5t67 -252.5v-12zM934 504v12q0 104 -43.5 167t-115 89.5t-159.5 26.5q-70 0 -160.5 -11.5t-148.5 -25.5v-195q0 -164 35.5 -258t104 -133t171.5 -39q100 0 170 35t108 117.5t38 214.5z" />
    <glyph glyph-name="seven" unicode="7" horiz-adv-x="1079" 
d="M1016 1393q0 -51 -27 -107l-590 -1255q-15 -31 -45 -31h-123q-30 0 -30 31q0 10 6 22l618 1286q2 2 2 9q0 14 -14 14h-698q-41 0 -41 35v86q0 15 12 27t29 12h747q81 0 117.5 -36t36.5 -93z" />
    <glyph glyph-name="eight" unicode="8" 
d="M1128 424q0 -143 -66 -242.5t-178.5 -147.5t-252.5 -48h-21q-140 0 -252.5 48t-178.5 147.5t-66 242.5v39q0 99 52 189t146 143q-65 33 -108 81.5t-64.5 109t-21.5 128.5v19q0 138 63.5 227.5t173.5 132.5t256 43h21q146 0 256 -43t173.5 -132.5t63.5 -227.5v-19
q0 -68 -21.5 -128.5t-64.5 -109t-108 -81.5q93 -52 145.5 -142.5t52.5 -189.5v-39zM944 1114v19q0 122 -80.5 186.5t-232.5 64.5h-21q-151 0 -232 -65t-81 -186v-19q0 -105 64 -175.5t196 -70.5h127q131 0 195.5 70.5t64.5 175.5zM942 424v39q0 62 -26.5 121.5t-85 98
t-146.5 38.5h-127q-66 0 -116 -22.5t-81.5 -61t-46 -85t-14.5 -89.5v-39q0 -134 80.5 -208.5t230.5 -74.5h21q149 0 230 74.5t81 208.5z" />
    <glyph glyph-name="nine" unicode="9" 
d="M1100 596q0 -165 -34 -280t-101 -188t-167 -107.5t-233 -34.5q-110 0 -198.5 10t-153.5 24q-49 13 -49 39v80q0 37 37 37q4 0 6.5 -0.5t5.5 -1.5q172 -33 350 -33q150 0 227.5 55t101 151.5t23.5 248.5v22q-58 -12 -104 -20.5t-94.5 -14t-110.5 -5.5q-108 0 -196 21.5
t-158 71t-110 133.5t-40 202v12q0 119 31 216t94 164.5t157 102.5t218 35q118 0 209 -34.5t156 -106t99 -182.5t34 -259v-358zM913 760l2 194q0 241 -76.5 335.5t-234.5 94.5q-100 0 -170.5 -35t-108.5 -116.5t-38 -214.5v-12q0 -154 89 -218.5t228 -64.5q64 0 154.5 10.5
t154.5 26.5z" />
    <glyph glyph-name="colon" unicode=":" horiz-adv-x="449" 
d="M313 895q0 -17 -11.5 -28t-29.5 -11h-96q-15 0 -28 11t-13 28v190q0 16 12.5 28.5t28.5 12.5h96q18 0 29.5 -11.5t11.5 -29.5v-190zM313 39q0 -17 -11.5 -28t-29.5 -11h-96q-15 0 -28 11t-13 28v192q0 15 12 27t29 12h96q17 0 29 -11t12 -28v-192z" />
    <glyph glyph-name="semicolon" unicode=";" horiz-adv-x="449" 
d="M313 895q0 -17 -11 -28t-28 -11h-100q-16 0 -27.5 11.5t-11.5 27.5v190q0 17 11 29t28 12h100q17 0 28 -11t11 -30v-190zM322 240q0 -2 -5 -17l-153 -387q-9 -23 -16.5 -32t-22.5 -9h-82q-25 0 -25 27q0 10 2 14l117 387q12 39 41 39h117q27 0 27 -22z" />
    <glyph glyph-name="less" unicode="&#x3c;" 
d="M987 307q0 -20 -24 -20h-119q-31 0 -64 26l-493 418q-37 31 -37 70t37 69l493 418q32 27 64 27h119q24 0 24 -21q0 -17 -20 -34l-537 -459l537 -459q20 -17 20 -35z" />
    <glyph glyph-name="equal" unicode="=" 
d="M1055 987q0 -15 -12.5 -24t-28.5 -9h-789q-16 0 -28.5 9t-12.5 24v82q0 33 41 33h789q41 0 41 -33v-82zM1055 535q0 -33 -41 -33h-789q-41 0 -41 33v81q0 33 41 33h789q41 0 41 -33v-81z" />
    <glyph glyph-name="greater" unicode="&#x3e;" 
d="M989 801q0 -39 -37 -70l-493 -418q-32 -26 -64 -26h-119q-24 0 -24 20q0 18 20 35l537 459l-537 459q-20 17 -20 34q0 21 24 21h119q32 0 64 -27l493 -418q37 -30 37 -69z" />
    <glyph glyph-name="question" unicode="?" horiz-adv-x="913" 
d="M791 1202q0 -50 -15 -97t-55 -106t-117 -147l-92 -104q-66 -75 -87.5 -112t-21.5 -99v-101q0 -17 -11.5 -28t-29.5 -11h-90q-16 0 -27.5 11.5t-11.5 27.5v101q0 99 28 160.5t108 148.5l94 104q76 85 101.5 136.5t25.5 115.5v25q0 80 -50.5 113.5t-158.5 33.5
q-110 0 -277 -18h-6q-30 0 -30 35v71q0 21 6 32t28 15q133 27 279 27q192 0 301 -71.5t109 -237.5v-25zM406 39q0 -17 -11 -28t-28 -11h-99q-15 0 -28 11t-13 28v190q0 16 12.5 28.5t28.5 12.5h99q17 0 28 -12t11 -29v-190z" />
    <glyph glyph-name="at" unicode="@" horiz-adv-x="1571" 
d="M1491 750q0 -129 -21.5 -224t-64 -165t-107.5 -119q-91 -69 -229 -100t-324 -31q-153 0 -241 75t-88 209q0 25 2 37l22 240q17 158 112.5 241.5t260.5 83.5q116 0 262 -30q21 -4 32 -14t11 -29v-9l-61 -641q121 17 187 79.5t89 159.5t23 237q0 100 -31.5 185.5t-95 151
t-158 102t-219.5 36.5q-264 0 -421 -140.5t-181 -379.5l-31 -312q-4 -44 -4 -65q0 -91 32 -171t96.5 -140t162 -93t225.5 -33q111 0 295 15h2q11 0 15 -5.5t4 -9.5v-65q0 -26 -33 -29q-141 -16 -285 -16q-143 0 -264 39t-206.5 113t-130 175.5t-44.5 221.5q0 43 2 63l31 320
q18 187 111 329t255 221.5t375 79.5q154 0 272.5 -47.5t199.5 -131.5t121 -190t40 -224zM936 838q-86 12 -139 12q-89 0 -132.5 -43.5t-54.5 -138.5l-22 -234q-2 -12 -2 -35q0 -71 41 -106t127 -35h43q59 0 88 4z" />
    <glyph glyph-name="A" unicode="A" horiz-adv-x="1319" 
d="M1159 41q0 -17 -10.5 -29t-26.5 -12h-112q-16 0 -26.5 11.5t-10.5 29.5v606h-627v-606q0 -18 -10 -29.5t-27 -11.5h-112q-16 0 -26.5 12t-10.5 29v1071q0 155 48 248t144.5 134.5t247.5 41.5h119q150 0 246.5 -41.5t145 -134t48.5 -248.5v-1071zM973 811v301
q0 107 -24 162t-77.5 76.5t-152.5 21.5h-119q-143 0 -198.5 -52t-55.5 -208v-301h627z" />
    <glyph glyph-name="B" unicode="B" horiz-adv-x="1262" 
d="M1159 420q0 -434 -598 -434q-217 0 -334 18q-36 5 -51.5 21.5t-15.5 54.5v1364q0 70 65 76q136 16 326 16q178 0 310.5 -36t211 -123.5t78.5 -235.5v-33q0 -113 -58 -197.5t-161 -124.5q105 -35 166 -123.5t61 -207.5v-35zM965 1108v33q0 137 -103 187t-311 50
q-47 0 -62 -0.5t-59 -2t-82 -3.5v-508h316q301 0 301 244zM973 420v35q0 116 -70.5 188t-238.5 72h-316v-563q32 -1 104.5 -5t108.5 -4q136 0 225 24t138 84.5t49 168.5z" />
    <glyph glyph-name="C" unicode="C" horiz-adv-x="1116" 
d="M1044 53q0 -34 -40 -41q-140 -26 -340 -26q-100 0 -196.5 32t-173.5 103t-124 195.5t-47 301.5v285q0 234 78.5 376t199.5 199.5t263 57.5q146 0 344 -33q32 -4 32 -26v-105q0 -22 -24 -22h-6q-222 18 -344 18q-165 0 -261 -109.5t-96 -355.5v-285q0 -244 96.5 -354
t260.5 -110q141 0 338 16h8q32 0 32 -33v-84z" />
    <glyph glyph-name="D" unicode="D" horiz-adv-x="1313" 
d="M1196 623q0 -321 -164 -479t-457 -158q-78 0 -160.5 3.5t-125.5 7t-86 9.5t-43 51v1407q0 44 43 52q43 6 86 9.5t125.5 7t160.5 3.5q195 0 333 -68t213 -211.5t75 -357.5v-276zM1010 623v276q0 177 -55.5 283t-152 150t-227.5 44q-125 0 -227 -6v-1220q66 -5 227 -5
q204 0 319.5 109t115.5 369z" />
    <glyph glyph-name="E" unicode="E" horiz-adv-x="1128" 
d="M1016 25q0 -26 -21 -29q-96 -10 -399 -10q-219 0 -327.5 90t-108.5 291v788q0 200 108 290.5t328 90.5q88 0 145 -1t139 -4.5t115 -6.5q10 -1 15.5 -9.5t5.5 -19.5v-102q0 -25 -23 -25h-395q-108 0 -162 -20.5t-72 -65t-18 -127.5v-285h629q17 0 29 -12t12 -29v-77
q0 -17 -13 -29t-28 -12h-629v-344q0 -83 18 -127.5t72 -65t162 -20.5h395q23 0 23 -25v-104z" />
    <glyph glyph-name="F" unicode="F" horiz-adv-x="1128" 
d="M1016 752q0 -17 -13 -29t-28 -12h-629v-670q0 -18 -12 -29.5t-29 -11.5h-104q-17 0 -29 12t-12 29v1114q0 200 108 290.5t328 90.5q88 0 145 -1t139 -4.5t115 -6.5q10 -1 15.5 -9.5t5.5 -19.5v-102q0 -25 -23 -25h-395q-108 0 -162 -20.5t-72 -65t-18 -127.5v-285h629
q17 0 29 -12t12 -29v-77z" />
    <glyph glyph-name="G" unicode="G" horiz-adv-x="1253" 
d="M1094 61q0 -16 -11 -29t-26 -16q-80 -13 -183.5 -21.5t-224.5 -8.5q-136 0 -257 64.5t-197 207.5t-76 365v274q0 179 47 304.5t125.5 198.5t175 104.5t201.5 31.5q215 0 389 -29q35 -4 35 -30v-103q0 -20 -27 -20h-8q-169 14 -389 14q-105 0 -185.5 -43t-129 -148
t-48.5 -280v-274q0 -162 45 -267.5t123 -154.5t176 -49q111 0 258 12v586q0 16 11 28.5t26 12.5h111q15 0 27 -13t12 -28v-689z" />
    <glyph glyph-name="H" unicode="H" horiz-adv-x="1393" 
d="M1233 41q0 -17 -13 -29t-28 -12h-105q-16 0 -28 12t-12 29v680h-701v-680q0 -18 -12 -29.5t-29 -11.5h-104q-17 0 -29 12t-12 29v1440q0 15 12 28t29 13h104q17 0 29 -12t12 -29v-594h701v594q0 15 12 28t28 13h105q15 0 28 -13t13 -28v-1440z" />
    <glyph glyph-name="I" unicode="I" horiz-adv-x="547" 
d="M367 41q0 -16 -10.5 -28.5t-26.5 -12.5h-113q-14 0 -25.5 11.5t-11.5 29.5v1442q0 15 11 27t26 12h113q15 0 26 -11t11 -28v-1442z" />
    <glyph glyph-name="J" unicode="J" horiz-adv-x="537" 
d="M356 227q0 -139 -13.5 -214.5t-63.5 -164.5l-109 -196q-17 -29 -28.5 -40t-32.5 -11h-115q-25 0 -25 20q0 16 11 35l124 238q48 90 57 143t9 190v1256q0 15 10 27t25 12h117q15 0 24.5 -11t9.5 -28v-1256z" />
    <glyph glyph-name="K" unicode="K" horiz-adv-x="1243" 
d="M1153 16q0 -16 -18 -16h-164q-28 0 -45 20l-580 709v-688q0 -18 -10 -29.5t-27 -11.5h-112q-16 0 -26.5 11.5t-10.5 29.5v1442q0 16 11.5 27.5t27.5 11.5h108q16 0 27.5 -10.5t11.5 -28.5v-660l590 680q18 19 41 19h143q17 0 25 -7.5t8 -17.5q0 -6 -8 -18l-619 -697
l621 -749q6 -9 6 -17z" />
    <glyph glyph-name="L" unicode="L" horiz-adv-x="1053" 
d="M1016 33q0 -26 -21 -29q-36 -6 -160.5 -12t-238.5 -6q-127 0 -222 27t-154.5 111.5t-59.5 242.5v1114q0 15 12 28t29 13h104q17 0 29 -12t12 -29v-1114q0 -83 18 -127.5t72 -65t162 -20.5h395q23 0 23 -25v-96z" />
    <glyph glyph-name="M" unicode="M" horiz-adv-x="1561" 
d="M1401 41q0 -41 -35 -41h-113q-34 0 -34 35v1286q0 22 -15 22q-13 0 -20 -22l-254 -651q-16 -42 -37 -62t-59 -20h-107q-37 0 -58.5 20t-37.5 62l-254 651q-7 22 -21 22t-14 -22v-1286q0 -17 -10.5 -26t-24.5 -9h-112q-35 0 -35 41v1335q0 93 33.5 119.5t105.5 26.5h76
q45 0 70 -11t43.5 -40.5t39.5 -86.5l238 -622q4 -13 6.5 -16t7.5 -3q8 0 15 19l237 622q20 52 39.5 83.5t45.5 43t69 11.5h76q72 0 105.5 -26t33.5 -120v-1335z" />
    <glyph glyph-name="N" unicode="N" horiz-adv-x="1356" 
d="M1212 41q0 -18 -10 -29.5t-26 -11.5h-115q-15 0 -25 12t-10 29v905q0 255 -87 341.5t-290 86.5q-49 0 -85 -1t-82.5 -3t-82.5 -4.5t-53 -3.5v-1321q0 -18 -10 -29.5t-27 -11.5h-112q-17 0 -27 12t-10 29v1401q0 38 12.5 52t44.5 19q72 12 207.5 18.5t228.5 6.5
q143 0 246.5 -30t172.5 -96.5t104.5 -182.5t35.5 -283v-905z" />
    <glyph glyph-name="O" unicode="O" horiz-adv-x="1354" 
d="M1231 629q0 -167 -40 -289.5t-114 -201t-175.5 -115.5t-223.5 -37q-121 0 -223.5 37t-177 116.5t-114.5 203t-40 286.5v264q0 164 40 287t115 202.5t176.5 116.5t223.5 37q123 0 223.5 -37t174.5 -115.5t114.5 -200.5t40.5 -290v-264zM1042 629v264q0 125 -25.5 218
t-71.5 148.5t-112.5 82t-154.5 26.5q-367 0 -367 -475v-264q0 -166 44 -272.5t125.5 -154.5t197.5 -48q364 0 364 475z" />
    <glyph glyph-name="P" unicode="P" horiz-adv-x="1214" 
d="M1122 1065q0 -459 -573 -459q-72 0 -205 10v-575q0 -18 -10 -29.5t-27 -11.5h-110q-16 0 -26.5 11.5t-10.5 29.5v1427q0 46 49 52q141 16 340 16q573 0 573 -444v-27zM936 1065v27q0 153 -92.5 219.5t-294.5 66.5q-107 0 -205 -8v-600q11 0 36.5 -1.5t55 -2.5t62 -2.5
t51.5 -1.5q208 0 297.5 71t89.5 232z" />
    <glyph glyph-name="Q" unicode="Q" horiz-adv-x="1354" 
d="M1231 629q0 -198 -57.5 -335.5t-161.5 -211t-244 -90.5v-330q0 -17 -9.5 -29t-25.5 -12h-110q-16 0 -25.5 12t-9.5 29v330q-141 19 -245.5 92t-162 210t-57.5 335v264q0 164 40 287t115 202.5t176.5 116.5t223.5 37q123 0 223.5 -37t174.5 -115.5t114.5 -200.5t40.5 -290
v-264zM1042 629v264q0 125 -25.5 218t-71.5 148.5t-112.5 82t-154.5 26.5q-367 0 -367 -475v-264q0 -166 44 -272.5t125.5 -154.5t197.5 -48q364 0 364 475z" />
    <glyph glyph-name="R" unicode="R" horiz-adv-x="1280" 
d="M1204 20q0 -20 -26 -20h-144q-19 0 -25 3.5t-20 23.5l-366 610h-19h-35q-72 0 -225 6v-602q0 -18 -10 -29.5t-27 -11.5h-110q-16 0 -26.5 11.5t-10.5 29.5v1434q0 40 49 45q61 7 157.5 11.5t202.5 4.5q171 0 299 -42.5t201.5 -141.5t73.5 -256v-15q0 -164 -87.5 -269
t-234.5 -144l377 -629q6 -9 6 -19zM958 1081v15q0 99 -43 159.5t-128 86.5t-218 26q-176 0 -225 -6v-561q21 0 111 -2t114 -2q132 0 216.5 25.5t128.5 88t44 170.5z" />
    <glyph glyph-name="S" unicode="S" horiz-adv-x="1126" 
d="M1024 395q0 -174 -114.5 -291.5t-391.5 -117.5q-160 0 -340 28q-24 4 -31.5 11.5t-7.5 25.5v82q0 33 35 33h6q141 -12 338 -12q173 0 242 61.5t69 179.5q0 76 -51 132t-194 143l-199 121q-148 90 -215.5 177.5t-67.5 205.5q0 181 126.5 271.5t363.5 90.5q69 0 134.5 -3.5
t115.5 -8t106 -13.5q35 -7 35 -34v-88q0 -33 -35 -33h-4q-180 12 -352 12q-163 0 -232 -42.5t-69 -151.5q0 -69 49 -121t174 -127l188 -113q117 -70 188 -134.5t102.5 -132.5t31.5 -151z" />
    <glyph glyph-name="T" unicode="T" horiz-adv-x="1208" 
d="M1137 1395q0 -33 -39 -33h-400v-1321q0 -18 -10 -29.5t-26 -11.5h-113q-16 0 -26.5 11.5t-10.5 29.5v1321h-399q-41 0 -41 33v90q0 14 11.5 25.5t29.5 11.5h985q16 0 27.5 -10.5t11.5 -26.5v-90z" />
    <glyph glyph-name="U" unicode="U" horiz-adv-x="1356" 
d="M1196 74q0 -36 -12 -48.5t-45 -17.5q-74 -11 -208.5 -17.5t-228.5 -6.5q-141 0 -245 30t-174.5 99t-105 182t-34.5 280v906q0 15 10.5 28t26.5 13h115q15 0 25 -12.5t10 -28.5v-906q0 -172 40 -266t121 -128t216 -34q134 0 303 13v1321q0 15 10 28t27 13h112
q17 0 27 -11.5t10 -29.5v-1407z" />
    <glyph glyph-name="V" unicode="V" horiz-adv-x="1317" 
d="M1247 1487q0 -8 -2 -12l-377 -1334q-24 -87 -81.5 -121t-127.5 -34q-165 0 -208 155l-379 1334q-2 4 -2 12q0 16 10.5 25.5t25.5 9.5h119q13 0 23.5 -9t13.5 -22l356 -1305q14 -43 41 -43t39 43l359 1305q8 31 35 31h120q35 0 35 -35z" />
    <glyph glyph-name="W" unicode="W" horiz-adv-x="1690" 
d="M1620 1487v-6l-227 -1385q-10 -59 -41.5 -81.5t-85.5 -22.5h-88q-43 0 -74 28t-43 74l-201 758q-4 18 -12 18h-4q-8 0 -13 -18l-202 -758q-12 -46 -43 -74t-74 -28h-86q-54 0 -85.5 22t-41.5 82l-227 1385v6q0 35 34 35h119q29 0 35 -35l199 -1305q2 -11 4 -20.5t6 -9.5
q7 0 14 30l201 758q21 82 96 82h131q75 0 97 -82l200 -758q7 -30 15 -30q5 0 7 9.5t3 20.5l199 1305q6 35 34 35h119q35 0 35 -35z" />
    <glyph glyph-name="X" unicode="X" horiz-adv-x="1323" 
d="M1237 29q0 -29 -33 -29h-129q-15 0 -21.5 5.5t-21.5 25.5l-375 596l-366 -596q-20 -31 -43 -31h-121q-33 0 -33 31q0 11 6 20l455 723l-451 699q-6 9 -6 20q0 29 31 29h133q26 0 37 -21l369 -583l356 583q13 21 39 21h121q14 0 23.5 -8.5t9.5 -22.5q0 -7 -7 -18
l-440 -703l461 -719q6 -9 6 -22z" />
    <glyph glyph-name="Y" unicode="Y" horiz-adv-x="1221" 
d="M1139 1493q0 -9 -6 -23l-428 -852v-577q0 -16 -10.5 -28.5t-26.5 -12.5h-117q-15 0 -25 12t-10 29v577l-428 852q-6 17 -6 25q0 27 33 27h129q21 0 35 -29l331 -694l332 694q12 29 35 29h127q35 0 35 -29z" />
    <glyph glyph-name="Z" unicode="Z" horiz-adv-x="1214" 
d="M1112 37q0 -17 -11.5 -27t-29.5 -10h-788q-83 0 -126.5 43.5t-43.5 108.5q0 60 30 106l734 1067q6 9 6 16q0 15 -21 15h-680q-16 0 -28.5 9.5t-12.5 25.5v96q0 15 12.5 25t28.5 10h729q57 0 96.5 -20t58.5 -54t19 -74q0 -60 -32 -108l-731 -1067q-7 -8 -7 -19
q0 -12 21 -12h735q41 0 41 -35v-96z" />
    <glyph glyph-name="bracketleft" unicode="[" horiz-adv-x="670" 
d="M621 -356q0 -17 -13 -29t-28 -12h-381q-15 0 -25 12t-10 27v1841q0 15 10 27t25 12h381q15 0 28 -13t13 -28v-68q0 -15 -13 -28t-28 -13h-234v-1620h234q17 0 29 -12t12 -29v-67z" />
    <glyph glyph-name="backslash" unicode="\" horiz-adv-x="727" 
d="M682 29q0 -13 -8 -21t-21 -8h-104q-25 0 -37 41l-463 1440q-2 4 -2 12q0 10 8 19.5t21 9.5h104q23 0 35 -41l465 -1440q2 -4 2 -12z" />
    <glyph glyph-name="bracketright" unicode="]" horiz-adv-x="670" 
d="M506 -358q0 -17 -10 -28t-25 -11h-381q-15 0 -28 12t-13 29v67q0 17 12 29t29 12h234v1620h-234q-15 0 -28 13t-13 28v68q0 15 13 28t28 13h381q15 0 25 -11t10 -28v-1841z" />
    <glyph glyph-name="asciicircum" unicode="^" 
d="M1034 1171q0 -18 -22 -18h-123q-20 0 -26.5 5t-31.5 32l-210 246l-211 -246q-19 -23 -28.5 -30t-29.5 -7h-123q-22 0 -22 18q0 12 8 23l236 305q17 23 28.5 30t32.5 7h217q21 0 33.5 -7.5t28.5 -29.5l235 -305q8 -11 8 -23z" />
    <glyph glyph-name="underscore" unicode="_" horiz-adv-x="1012" 
d="M1075 -184q0 -33 -41 -33h-1054q-41 0 -41 33v51q0 15 11.5 24t29.5 9h1054q18 0 29.5 -8.5t11.5 -24.5v-51z" />
    <glyph glyph-name="grave" unicode="`" horiz-adv-x="762" 
d="M498 1290q0 -14 -19 -14h-110q-15 0 -22 5.5t-25 25.5l-232 258q-8 8 -8 16q0 14 22 14h136q17 0 26.5 -5.5t24.5 -24.5l198 -254q9 -8 9 -21z" />
    <glyph glyph-name="a" unicode="a" horiz-adv-x="1108" 
d="M969 80q0 -22 -8.5 -32t-34.5 -15q-190 -47 -377 -47q-149 0 -249.5 61.5t-149 176t-48.5 268.5v143q0 116 27 209t82.5 160t139 102t198.5 35q62 0 126.5 -6t131.5 -17t119 -24q26 -5 34.5 -14.5t8.5 -32.5v-967zM788 158v811q-44 7 -68.5 10t-76 6.5t-94.5 3.5
q-146 0 -206 -90.5t-60 -263.5v-143q0 -173 61 -264t205 -91q48 0 116 5.5t123 15.5z" />
    <glyph glyph-name="b" unicode="b" horiz-adv-x="1108" 
d="M1006 492q0 -157 -48 -270t-149.5 -174.5t-249.5 -61.5q-197 0 -377 34q-28 6 -35.5 15.5t-7.5 32.5v1433q0 15 10.5 27t26.5 12h105q16 0 27 -11t11 -28v-381q109 21 240 21q113 0 196.5 -33.5t139.5 -96.5t83.5 -156t27.5 -216v-147zM825 492v147q0 174 -60.5 259
t-205.5 85q-74 0 -132.5 -2.5t-107.5 -11.5v-813q152 -13 240 -13q97 0 156.5 39.5t84.5 116t25 193.5z" />
    <glyph glyph-name="c" unicode="c" horiz-adv-x="926" 
d="M836 53q0 -37 -41 -45q-125 -22 -256 -22q-135 0 -235 61t-151 173t-51 263v160q0 150 50.5 262.5t149.5 174t237 61.5q126 0 256 -23q24 -4 32.5 -13.5t8.5 -31.5v-74q0 -30 -35 -30h-8q-127 14 -254 14q-256 0 -256 -340v-160q0 -169 65.5 -254.5t190.5 -85.5
q130 0 254 15h8q35 0 35 -31v-74z" />
    <glyph glyph-name="d" unicode="d" horiz-adv-x="1108" 
d="M969 68q0 -23 -8.5 -33t-34.5 -15q-180 -34 -377 -34q-149 0 -249.5 61.5t-149 176t-48.5 268.5v147q0 123 27.5 215.5t84 156.5t140 97t195.5 33q62 0 124 -5t115 -16v381q0 16 11 27.5t28 11.5h105q15 0 26 -11t11 -28v-1433zM788 156v813q-47 9 -105 11.5t-134 2.5
q-96 0 -156 -39.5t-85 -115t-25 -189.5v-147q0 -176 60 -262.5t206 -86.5q90 0 239 13z" />
    <glyph glyph-name="e" unicode="e" horiz-adv-x="1114" 
d="M1012 551q0 -45 -39 -45h-686v-25q0 -115 35 -192.5t101.5 -114.5t162.5 -37q76 0 176.5 9t173.5 20h10q33 0 33 -29v-69q0 -21 -8.5 -31.5t-32.5 -16.5q-85 -16 -169 -25t-183 -9q-131 0 -238 47t-174.5 160t-67.5 299v143q0 145 53 260.5t156.5 180.5t245.5 65
q146 0 247.5 -64.5t152.5 -178.5t51 -261v-86zM829 643v10q0 165 -67 247.5t-201 82.5q-87 0 -148.5 -38t-93.5 -113t-32 -179v-10h542z" />
    <glyph glyph-name="f" unicode="f" horiz-adv-x="731" 
d="M680 1438q0 -29 -43 -29h-182q-59 0 -87 -9.5t-38.5 -39.5t-10.5 -90v-144h320q39 0 39 -36v-70q0 -17 -11 -27t-28 -10h-320v-942q0 -18 -12 -29.5t-28 -11.5h-99q-15 0 -28 12t-13 29v1229q0 157 80.5 220.5t235.5 63.5q106 0 184 -12q41 -5 41 -35v-69z" />
    <glyph glyph-name="g" unicode="g" horiz-adv-x="1108" 
d="M969 2q0 -153 -45.5 -241.5t-137 -126t-233.5 -37.5q-107 0 -201 11t-147 25q-25 9 -33 17t-8 26v60q0 15 10 24t27 9h6q108 -12 191 -18.5t155 -6.5q98 0 147 20t68.5 72.5t19.5 157.5v20q-40 -10 -111 -19t-118 -9q-457 0 -457 503v150q0 254 113 378t344 124
q160 0 367 -47q26 -5 34.5 -14.5t8.5 -32.5v-1045zM788 160v807q-121 22 -229 22q-77 0 -129 -19t-84.5 -60t-47.5 -108.5t-15 -162.5v-150q0 -130 30.5 -207t91.5 -111t154 -34q49 0 116 6.5t113 16.5z" />
    <glyph glyph-name="h" unicode="h" horiz-adv-x="1141" 
d="M1001 41q0 -18 -12 -29.5t-28 -11.5h-99q-15 0 -28 12t-13 29v688q0 258 -266 258q-132 0 -236 -31v-915q0 -18 -12 -29.5t-28 -11.5h-99q-15 0 -28 12t-13 29v1460q0 15 10.5 27t26.5 12h105q16 0 27 -11t11 -28v-389q127 29 236 29q115 0 198.5 -28.5t139 -84
t82 -131.5t26.5 -168v-688z" />
    <glyph glyph-name="i" unicode="i" horiz-adv-x="506" 
d="M346 1348q0 -18 -12 -29.5t-29 -11.5h-104q-17 0 -29 12t-12 29v163q0 17 11.5 29t29.5 12h104q19 0 30 -11t11 -30v-163zM342 41q0 -18 -12 -29.5t-29 -11.5h-98q-17 0 -29 12t-12 29v1044q0 17 11.5 29t29.5 12h98q19 0 30 -11t11 -30v-1044z" />
    <glyph glyph-name="j" unicode="j" horiz-adv-x="506" 
d="M346 1348q0 -18 -12 -29.5t-29 -11.5h-106q-15 0 -27 12t-12 29v165q0 16 11 27.5t28 11.5h106q17 0 29 -11t12 -28v-165zM342 -131q0 -104 -29.5 -163.5t-87 -84t-141.5 -24.5q-56 0 -111 8q-36 6 -36 33v75q0 29 43 29h86q59 0 77.5 25.5t18.5 101.5v1216q0 17 11.5 29
t29.5 12h98q19 0 30 -11t11 -30v-1216z" />
    <glyph glyph-name="k" unicode="k" horiz-adv-x="1016" 
d="M944 27q0 -27 -22 -27h-148q-15 0 -24.5 5t-22.5 22l-408 503v-489q0 -18 -12 -29.5t-28 -11.5h-99q-15 0 -28 12t-13 29v1458q0 17 12 29t29 12h99q18 0 29 -11t11 -30v-852l410 461q15 18 41 18h143q31 0 31 -22q0 -13 -10 -23l-451 -487l455 -549q6 -6 6 -18z" />
    <glyph glyph-name="l" unicode="l" horiz-adv-x="500" 
d="M340 41q0 -18 -10 -29.5t-27 -11.5h-106q-16 0 -26.5 11.5t-10.5 29.5v1460q0 15 9.5 27t27.5 12h106q17 0 27 -11t10 -28v-1460z" />
    <glyph glyph-name="m" unicode="m" horiz-adv-x="1634" 
d="M1495 41q0 -19 -10 -30t-27 -11h-106q-17 0 -27 12t-10 29v741q0 122 -45.5 161.5t-139.5 39.5h-47q-71 0 -107 -10.5t-52.5 -41t-16.5 -87.5v-803q0 -19 -10 -30t-27 -11h-106q-17 0 -27 12t-10 29v803q0 85 -36 112t-140 27h-47q-93 0 -139 -40t-46 -161v-741
q0 -19 -10 -30t-26 -11h-107q-15 0 -26 12t-11 29v741q0 79 23 145.5t68.5 114.5t114 73.5t159.5 25.5h47q98 0 160 -16.5t106 -57.5q45 39 108.5 56.5t157.5 17.5h47q91 0 160 -25.5t115 -74.5t68 -113t22 -146v-741z" />
    <glyph glyph-name="n" unicode="n" horiz-adv-x="1141" 
d="M1001 41q0 -19 -10 -30t-26 -11h-107q-15 0 -26 12t-11 29v731q0 81 -15.5 126t-55 66t-107.5 21h-145q-103 0 -141 -48t-38 -165v-731q0 -19 -10 -30t-26 -11h-107q-15 0 -26 12t-11 29v731q0 145 56.5 227.5t137 112t165.5 29.5h145q141 0 249.5 -79.5t108.5 -289.5
v-731z" />
    <glyph glyph-name="o" unicode="o" horiz-adv-x="1116" 
d="M1014 485q0 -152 -52 -264t-155 -173.5t-250 -61.5q-220 0 -337.5 134.5t-117.5 364.5v156q0 231 117.5 365.5t337.5 134.5q114 0 198.5 -35t142.5 -100.5t87 -158.5t29 -206v-156zM834 485v156q0 162 -68 252t-209 90q-138 0 -206 -89.5t-68 -252.5v-156
q0 -342 274 -342q140 0 208.5 89t68.5 253z" />
    <glyph glyph-name="p" unicode="p" horiz-adv-x="1108" 
d="M1006 487q0 -243 -113 -372t-334 -129q-114 0 -240 22v-370q0 -16 -10.5 -27.5t-27.5 -11.5h-105q-15 0 -26 11t-11 28v1409q0 21 9 31t34 16q52 13 119 24t131 17t127 6q149 0 249 -61.5t149 -175.5t49 -269v-148zM825 487v148q0 172 -61 263t-205 91q-124 0 -240 -20
v-811q110 -21 240 -21q144 0 205 88t61 262z" />
    <glyph glyph-name="q" unicode="q" horiz-adv-x="1108" 
d="M969 -362q0 -15 -11 -27t-26 -12h-105q-16 0 -27.5 11.5t-11.5 27.5v370q-121 -22 -239 -22q-220 0 -333.5 129.5t-113.5 371.5v148q0 116 27 209t82.5 160t139 102t198.5 35q62 0 126.5 -6t131.5 -17t119 -24q26 -5 34.5 -14.5t8.5 -32.5v-1409zM788 158v811
q-44 7 -68.5 10t-76 6.5t-94.5 3.5q-146 0 -206 -90.5t-60 -263.5v-148q0 -85 14.5 -150t45 -108.5t81 -67.5t125.5 -24q54 0 117 5t122 16z" />
    <glyph glyph-name="r" unicode="r" horiz-adv-x="725" 
d="M647 1016q0 -19 -8.5 -26t-34.5 -7q-187 0 -285 -20v-922q0 -18 -10 -29.5t-26 -11.5h-107q-14 0 -25.5 11.5t-11.5 29.5v995q0 30 37 47q83 36 178.5 47t249.5 11q24 0 33.5 -5.5t9.5 -25.5v-94z" />
    <glyph glyph-name="s" unicode="s" horiz-adv-x="954" 
d="M852 283q0 -152 -102 -224.5t-281 -72.5q-70 0 -165 8t-159 22q-43 12 -43 41v72q0 14 11 22.5t26 8.5h8q175 -23 322 -23q103 0 153 32.5t50 113.5q0 46 -33 82t-121 88l-207 122q-103 63 -156 132t-53 161q0 150 98.5 211.5t272.5 61.5q156 0 320 -27q38 -6 38 -41v-67
q0 -35 -34 -35h-6q-192 16 -318 16q-99 0 -144.5 -23.5t-45.5 -95.5q0 -42 32 -75.5t109 -79.5l203 -121q124 -73 174.5 -145t50.5 -164z" />
    <glyph glyph-name="t" unicode="t" horiz-adv-x="731" 
d="M680 33q0 -30 -41 -35q-31 -5 -93 -8.5t-104 -3.5q-101 0 -167 25.5t-101 88t-35 170.5v1057q0 14 11.5 25t29.5 14l101 16h4q16 0 25 -11t9 -28v-217h320q39 0 39 -36v-70q0 -17 -11 -27t-28 -10h-320v-713q0 -42 8.5 -71t25 -43t44.5 -19.5t74 -5.5h166q43 0 43 -29
v-69z" />
    <glyph glyph-name="u" unicode="u" horiz-adv-x="1141" 
d="M1001 467q0 -143 -42.5 -238.5t-108.5 -148t-137.5 -73.5t-132.5 -21h-19q-90 0 -185 40.5t-166 148t-71 292.5v618q0 17 10.5 29t26.5 12h107q17 0 26.5 -11t9.5 -30v-618q0 -174 65 -249t177 -75h19q112 0 176.5 75t64.5 249v618q0 17 10.5 29t26.5 12h107
q17 0 26.5 -11t9.5 -30v-618z" />
    <glyph glyph-name="v" unicode="v" horiz-adv-x="1085" 
d="M1006 1094q0 -11 -2 -17l-263 -930q-45 -161 -198 -161q-68 0 -120 35t-79 126l-262 930q-2 6 -2 15q0 16 8.5 25t24.5 9h112q30 0 39 -39l230 -888q9 -37 20 -50.5t29 -13.5q34 0 49 64l229 888q9 39 39 39h115q31 0 31 -32z" />
    <glyph glyph-name="w" unicode="w" horiz-adv-x="1649" 
d="M1509 444q0 -250 -115.5 -354t-297.5 -104q-135 0 -271 49q-136 -49 -272 -49q-182 0 -298 104.5t-116 353.5v641q0 17 12 29t29 12h96q19 0 30 -11t11 -30v-641q0 -110 27 -177.5t82.5 -97.5t142.5 -30q36 0 69.5 6t94.5 21v919q0 17 12 29t29 12h100q19 0 30 -11
t11 -30v-919q116 -27 164 -27q129 0 190.5 70.5t61.5 234.5v641q0 17 12 29t29 12h96q19 0 30 -11t11 -30v-641z" />
    <glyph glyph-name="x" unicode="x" horiz-adv-x="1059" 
d="M1016 23q0 -23 -27 -23h-141q-18 0 -29 16l-293 428l-293 -424q-9 -13 -15 -16.5t-19 -3.5h-123q-25 0 -25 20q0 15 10 27l369 526l-348 502q-10 17 -10 27q0 24 30 24h134q22 0 40 -28l261 -385l262 385q13 19 20 23.5t23 4.5h119q26 0 26 -24q0 -10 -10 -27l-344 -489
l375 -539q8 -11 8 -24z" />
    <glyph glyph-name="y" unicode="y" horiz-adv-x="1141" 
d="M1001 0q0 -118 -25.5 -197.5t-78 -125.5t-128 -64.5t-185.5 -18.5q-201 0 -338 35q-23 8 -31 17t-8 26v58q0 16 10 25t27 9h6q9 -1 75 -8t142 -11.5t117 -4.5q95 0 146.5 20.5t73 76t21.5 163.5v10q-35 -10 -107.5 -17t-119.5 -7q-459 0 -459 424v675q0 17 12 29t29 12
h99q18 0 29 -11t11 -30v-675q0 -155 69.5 -213t209.5 -58q109 0 223 27v919q0 17 12 29t29 12h99q18 0 29 -11t11 -30v-1085z" />
    <glyph glyph-name="z" unicode="z" horiz-adv-x="987" 
d="M885 41q0 -17 -13 -29t-28 -12h-541q-96 0 -149.5 32t-53.5 118q0 78 47 135l529 657q8 12 8 19q0 14 -20 14h-498q-17 0 -29 12t-12 29v69q0 17 11.5 29t29.5 12h506q69 0 114.5 -13.5t68 -44t22.5 -83.5q0 -73 -46 -127l-534 -668q-10 -10 -10 -22q0 -16 20 -16h537
q15 0 28 -13t13 -28v-70z" />
    <glyph glyph-name="braceleft" unicode="{" horiz-adv-x="678" 
d="M623 -356q0 -17 -13 -29t-28 -12h-105q-127 0 -194 25.5t-93 85.5t-26 171v361q0 97 -25.5 151t-97.5 105v119q73 52 98 105.5t25 147.5v365q0 111 26.5 171.5t93 86t193.5 25.5h103q15 0 28 -13t13 -28v-68q0 -15 -13 -28t-28 -13h-93q-60 0 -90 -10.5t-40.5 -37.5
t-10.5 -85v-365q0 -110 -33 -185t-112 -130q79 -56 112 -129t33 -184v-361q0 -45 5.5 -69t20 -38t43 -20t72.5 -6h95q17 0 29 -12t12 -29v-67z" />
    <glyph glyph-name="bar" unicode="|" horiz-adv-x="510" 
d="M346 -358q0 -16 -10.5 -27.5t-26.5 -11.5h-106q-15 0 -27 12t-12 27v1841q0 15 12 27t27 12h106q16 0 26.5 -11.5t10.5 -27.5v-1841z" />
    <glyph glyph-name="braceright" unicode="}" horiz-adv-x="678" 
d="M637 502q-72 -51 -97.5 -105.5t-25.5 -150.5v-361q0 -111 -26 -171t-93 -85.5t-194 -25.5h-105q-15 0 -28 12t-13 29v67q0 17 12 29t29 12h94q90 0 116 25.5t26 107.5v361q0 111 33 184t112 129q-79 55 -112 130t-33 185v365q0 83 -26 108t-116 25h-92q-15 0 -28 13
t-13 28v68q0 15 13 28t28 13h103q127 0 193.5 -25.5t93 -86t26.5 -171.5v-365q0 -93 25.5 -147.5t97.5 -105.5v-119z" />
    <glyph glyph-name="asciitilde" unicode="~" 
d="M1053 956q0 -131 -52.5 -196.5t-171.5 -65.5q-80 0 -155 58l-150 118q-46 38 -66.5 51t-41.5 13q-53 0 -69.5 -28.5t-16.5 -92.5v-53q0 -17 -13 -29t-28 -12h-60q-15 0 -28 12t-13 29v53q0 86 26.5 146t77.5 90t124 30q83 0 153 -57l174 -139q25 -19 48 -30t38 -11
q37 0 55 11t22.5 32.5t4.5 70.5v58q0 15 13 28t28 13h60q15 0 28 -13t13 -28v-58z" />
    <glyph glyph-name="uni00A0" unicode="&#xa0;" 
 />
    <glyph glyph-name="exclamdown" unicode="&#xa1;" horiz-adv-x="444" 
d="M313 895q0 -16 -11.5 -27.5t-27.5 -11.5h-98q-16 0 -27.5 11.5t-11.5 27.5v192q0 17 11 28t28 11h98q16 0 27.5 -10.5t11.5 -28.5v-192zM276 -416h-104q-16 0 -27.5 11.5t-11.5 27.5l14 1065q0 15 12 27t29 12h72q18 0 29.5 -11.5t11.5 -27.5l16 -1065q0 -17 -12 -28
t-29 -11z" />
    <glyph glyph-name="cent" unicode="&#xa2;" 
d="M987 53q0 -21 -8.5 -31t-32.5 -14q-91 -14 -192 -20v-185q0 -15 -13 -28t-28 -13h-84q-17 0 -29 13t-12 28v193q-105 21 -180.5 86t-114.5 167.5t-39 233.5v160q0 197 87.5 326.5t246.5 160.5v191q0 15 12 28t29 13h84q15 0 28 -13t13 -28v-182q91 -5 192 -21
q25 -4 33 -13.5t8 -31.5v-74q0 -30 -35 -30h-8q-144 16 -254 16q-124 0 -190 -85.5t-66 -256.5v-160q0 -170 65 -256t191 -86q115 0 254 17h8q35 0 35 -31v-74z" />
    <glyph glyph-name="sterling" unicode="&#xa3;" 
d="M1075 35q0 -35 -41 -35h-817q-35 0 -35 31v80q0 10 3 16.5t7.5 13.5t10.5 17q35 58 49 110.5t14 130.5v312h-106q-18 0 -27.5 10.5t-9.5 26.5v86q0 14 12 25t29 11h102v134q0 174 42 288t142 171t269 57q68 0 159.5 -8t157.5 -19q24 -4 31.5 -11t7.5 -24v-84
q0 -35 -31 -35h-10q-188 23 -315 23q-108 0 -164.5 -32t-79 -108.5t-22.5 -217.5v-134h440q16 0 27.5 -10.5t11.5 -25.5v-86q0 -16 -12.5 -26.5t-28.5 -10.5h-438v-312q0 -113 -72 -243h653q41 0 41 -31v-90z" />
    <glyph glyph-name="currency" unicode="&#xa4;" 
d="M1122 1176q0 -17 -14 -31l-168 -168q68 -97 68 -213q0 -120 -70 -217l168 -168q14 -14 14 -31q0 -14 -10 -24l-55 -56q-10 -10 -23 -10q-15 0 -31 14l-172 172q-94 -67 -208 -67q-119 0 -213 67l-168 -168q-18 -16 -33 -16q-9 0 -21 10l-55 58q-10 13 -10 22q0 17 14 31
l166 166q-70 94 -70 217q0 117 66 211l-166 166q-14 14 -14 30q0 18 10 25l57 55q11 11 23 11t31 -17l163 -164q98 70 217 70q118 0 218 -70l168 168q15 15 30 15q14 0 23 -11l55 -55q10 -10 10 -22zM862 764q0 66 -33 122.5t-90 89t-123 32.5q-102 0 -173.5 -71.5
t-71.5 -172.5q0 -66 33.5 -123t89 -90t122.5 -33t123 33t89.5 90t33.5 123z" />
    <glyph glyph-name="yen" unicode="&#xa5;" 
d="M1165 473q0 -17 -12 -29t-29 -12h-409v-391q0 -16 -10.5 -28.5t-26.5 -12.5h-117q-15 0 -25 12t-10 29v391h-411q-17 0 -29 13t-12 28v62q0 16 11.5 28t29.5 12h411v43l-112 226h-299q-17 0 -29 12t-12 29v61q0 17 11.5 29t29.5 12h227l-244 483q-6 17 -6 25q0 27 33 27
h129q23 0 35 -29l332 -694l331 694q12 29 35 29h127q35 0 35 -29q0 -9 -6 -23l-244 -483h225q19 0 30 -11t11 -30v-61q0 -18 -12 -29.5t-29 -11.5h-297l-112 -226v-43h409q19 0 30 -11t11 -29v-62z" />
    <glyph glyph-name="brokenbar" unicode="&#xa6;" horiz-adv-x="510" 
d="M346 741q0 -15 -10.5 -28t-26.5 -13h-108q-16 0 -26.5 13t-10.5 28v711q0 16 10 27.5t27 11.5h108q17 0 27 -11.5t10 -27.5v-711zM346 -391q0 -17 -10.5 -29t-26.5 -12h-108q-16 0 -26.5 12t-10.5 29v710q0 16 10 27.5t27 11.5h108q17 0 27 -11.5t10 -27.5v-710z" />
    <glyph glyph-name="section" unicode="&#xa7;" horiz-adv-x="1120" 
d="M1022 -35q0 -179 -114 -293t-392 -114q-164 0 -344 28q-15 3 -27 13.5t-12 25.5v86q0 16 12.5 25.5t28.5 9.5h4q222 -20 332 -20h6q173 0 240 61.5t67 177.5q0 55 -18 94.5t-64.5 78.5t-138.5 93l-229 138q-77 47 -132.5 92.5t-86 90.5t-43.5 93.5t-13 108.5
q0 59 17.5 109t52.5 106q-34 37 -52 91.5t-18 115.5q0 116 48.5 195.5t158 122t283.5 42.5q78 0 201 -10t157 -17q37 -7 37 -39v-88q0 -15 -10.5 -24.5t-26.5 -9.5h-2q-31 1 -156 9.5t-200 8.5q-173 0 -234 -43.5t-61 -146.5q0 -48 17.5 -83.5t60.5 -70.5t129 -86l223 -131
q87 -50 148 -101t93 -98.5t45 -97.5t13 -113q0 -132 -59 -223q59 -86 59 -207zM834 395q0 57 -18.5 95t-64 75.5t-126.5 87.5l-185 113q-7 5 -61.5 39.5t-85.5 56.5q-12 -37 -15.5 -53.5t-3.5 -54.5q0 -69 44.5 -123.5t138.5 -110.5l225 -131q71 -42 137 -88q10 29 12.5 43
t2.5 51z" />
    <glyph glyph-name="dieresis" unicode="&#xa8;" horiz-adv-x="764" 
d="M643 1352q0 -17 -12 -28t-29 -11h-80q-15 0 -28 11t-13 28v166q0 15 13 28t28 13h80q17 0 29 -13t12 -28v-166zM285 1352q0 -17 -13 -28t-28 -11h-80q-17 0 -29 11t-12 28v166q0 15 12 28t29 13h80q15 0 28 -13t13 -28v-166z" />
    <glyph glyph-name="copyright" unicode="&#xa9;" horiz-adv-x="1536" 
d="M1434 766q0 -180 -90 -333t-244.5 -242t-333.5 -89t-332.5 89t-242.5 242.5t-89 332.5q0 180 89 334.5t242 245t333 90.5q135 0 258 -52t215.5 -145.5t143.5 -215.5t51 -257zM1343 766q0 157 -77 290t-210.5 211.5t-289.5 78.5q-155 0 -288.5 -78t-210.5 -211.5
t-77 -290.5t77 -289t210 -208t289 -76q117 0 222.5 43.5t185.5 122t124.5 184t44.5 223.5zM975 375q0 -27 -31 -31q-72 -14 -186 -14q-93 0 -163 38t-110.5 122t-40.5 215v135q0 194 86.5 285.5t227.5 91.5q98 0 186 -17q31 -4 31 -29v-57q0 -24 -27 -24h-6q-107 10 -184 10
q-85 0 -136 -61t-51 -199v-135q0 -259 187 -259q66 0 184 11h4q29 0 29 -27v-55z" />
    <glyph glyph-name="ordfeminine" unicode="&#xaa;" horiz-adv-x="618" 
d="M541 922q0 -28 -21 -33q-90 -27 -201 -27q-136 0 -197 48.5t-61 152.5v14q0 98 70.5 143.5t220.5 45.5h66v26q0 72 -25 100.5t-86 28.5q-54 0 -172 -10h-4q-29 0 -29 27v43q0 24 31 28q95 19 174 19q122 0 178 -59t56 -177v-370zM420 969v211h-47h-19q-64 -1 -103 -11.5
t-55 -32.5t-16 -59v-14q0 -56 29.5 -80.5t109.5 -24.5q38 0 101 11z" />
    <glyph glyph-name="guillemotleft" unicode="&#xab;" horiz-adv-x="1257" 
d="M1147 162q0 -19 -23 -19h-118q-23 0 -43 21l-347 346q-22 22 -22 57q0 34 22 58l347 346q20 20 43 20h118q23 0 23 -18q0 -15 -12 -27l-365 -379l365 -379q12 -12 12 -26zM614 162q0 -19 -22 -19h-119q-23 0 -43 21l-346 346q-23 23 -23 57q0 33 23 58l346 346
q20 20 43 20h119q11 0 16.5 -4.5t5.5 -13.5q0 -15 -12 -27l-364 -379l364 -379q12 -12 12 -26z" />
    <glyph glyph-name="logicalnot" unicode="&#xac;" 
d="M1055 506q0 -17 -13 -29t-28 -12h-66q-15 0 -28 12t-13 29v448h-682q-16 0 -28.5 9t-12.5 24v82q0 33 41 33h795q10 0 18 -4.5t12.5 -12.5t4.5 -18v-561z" />
    <glyph glyph-name="uni00AD" unicode="&#xad;" horiz-adv-x="682" 
d="M584 559q0 -16 -11.5 -25.5t-27.5 -9.5h-408q-39 0 -39 35v80q0 15 11 26t28 11h408q18 0 28.5 -9.5t10.5 -27.5v-80z" />
    <glyph glyph-name="registered" unicode="&#xae;" horiz-adv-x="1225" 
d="M1165 991q0 -150 -74.5 -276t-201.5 -199.5t-277 -73.5q-149 0 -276 73.5t-201 199.5t-74 276t74 276.5t200.5 200.5t276.5 74q151 0 277.5 -74t201 -200.5t74.5 -276.5zM1081 991q0 127 -63 235t-171 171t-235 63q-128 0 -234 -63t-168.5 -171.5t-62.5 -234.5
q0 -127 62 -234t169 -169t234 -62q126 0 234.5 62.5t171.5 168.5t63 234zM870 678q0 -27 -24 -27h-58q-16 0 -24 17l-166 262l-20 6h-86v-254q0 -12 -8.5 -21.5t-20.5 -9.5h-51q-12 0 -19.5 10.5t-7.5 20.5v618q0 42 37 46q47 6 156 6q133 0 200.5 -47.5t67.5 -159.5v-8
q0 -145 -137 -185l157 -256q4 -8 4 -18zM743 1137v8q0 61 -36.5 85.5t-122.5 24.5h-66h-29v-229q31 0 52 -0.5t43 -1.5q86 0 122.5 26t36.5 87z" />
    <glyph glyph-name="uni00AF" unicode="&#xaf;" horiz-adv-x="1012" 
d="M1075 1655q0 -33 -41 -33h-1054q-41 0 -41 33v51q0 15 11.5 24t29.5 9h1054q18 0 29.5 -8.5t11.5 -24.5v-51z" />
    <glyph glyph-name="degree" unicode="&#xb0;" horiz-adv-x="700" 
d="M643 1245q0 -80 -39 -146.5t-105.5 -105.5t-146.5 -39t-146.5 39.5t-106.5 107t-40 144.5t40 144.5t106.5 107t146.5 39.5t146.5 -39t105.5 -105.5t39 -146.5zM532 1245q0 47 -24.5 89t-65.5 66.5t-90 24.5q-48 0 -89.5 -24.5t-66 -66t-24.5 -89.5t24.5 -89.5t66 -66
t89.5 -24.5q49 0 90 24.5t65.5 66.5t24.5 89z" />
    <glyph glyph-name="plusminus" unicode="&#xb1;" 
d="M1085 760q0 -33 -41 -33h-352v-350q0 -41 -33 -41h-81q-33 0 -33 41v350h-350q-41 0 -41 33v82q0 32 41 32h350v353q0 41 33 41h81q33 0 33 -41v-353h352q41 0 41 -32v-82zM1085 18q0 -32 -41 -32h-849q-41 0 -41 32v68q0 33 41 33h849q41 0 41 -33v-68z" />
    <glyph glyph-name="twosuperior" unicode="&#xb2;" horiz-adv-x="698" 
d="M608 1325q0 -66 -35 -117.5t-118 -107.5l-107 -72q-85 -58 -109 -103.5t-24 -115.5v-8h360q27 0 27 -21v-75q0 -21 -27 -21h-460q-25 0 -25 25v79q0 109 39.5 181.5t142.5 144.5l113 78q42 29 59.5 46.5t24 36.5t6.5 50q0 56 -33.5 76t-130.5 20q-88 0 -182 -16h-6
q-21 0 -21 20v64q0 14 25 22q98 25 197 25q142 0 213 -49t71 -162z" />
    <glyph glyph-name="threesuperior" unicode="&#xb3;" horiz-adv-x="692" 
d="M602 1311q0 -124 -100 -185q55 -32 76.5 -79t21.5 -99v-22q0 -124 -79.5 -183t-219.5 -59q-108 0 -190 25q-21 8 -21 22v60q0 22 21 22h4q86 -12 151 -12q113 0 159 25.5t46 99.5v22q0 50 -27.5 87.5t-95.5 37.5h-205q-24 0 -24 23v63q0 23 24 23h201q127 0 127 118v13
q0 64 -48 85t-147 21h-12q-47 0 -147 -14h-4q-21 0 -21 22v62q0 18 23 22q87 25 186 25q143 0 222 -48.5t79 -162.5v-14z" />
    <glyph glyph-name="acute" unicode="&#xb4;" horiz-adv-x="764" 
d="M682 1581q0 -8 -8 -16l-232 -258q-18 -20 -25 -25.5t-22 -5.5h-110q-19 0 -19 14q0 13 8 21l201 254q19 21 26 25.5t23 4.5h135q23 0 23 -14z" />
    <glyph glyph-name="uni00B5" unicode="&#xb5;" horiz-adv-x="1141" 
d="M1001 90q0 -35 -38 -47q-75 -27 -178 -42t-201 -15q-162 0 -265 59v-405q0 -19 -12 -30t-28 -11h-99q-15 0 -28 12t-13 29v1445q0 17 11 29t28 12h103q17 0 27.5 -11.5t10.5 -29.5v-673q0 -143 64 -208t201 -65q60 0 126.5 8t110.5 21v917q0 16 12.5 28.5t28.5 12.5h101
q17 0 27.5 -11.5t10.5 -29.5v-995z" />
    <glyph glyph-name="paragraph" unicode="&#xb6;" horiz-adv-x="1274" 
d="M1141 -360q0 -15 -10 -27t-25 -12h-47q-15 0 -25 12t-10 27v1771h-119v-1771q0 -17 -10 -28t-25 -11h-47q-15 0 -25 12t-10 27v899h-213q-140 0 -250.5 53.5t-171.5 156t-61 246.5v70q0 144 61 247t171 156.5t251 53.5h533q33 0 33 -39v-1843z" />
    <glyph glyph-name="uni00B7" unicode="&#xb7;" horiz-adv-x="438" 
d="M307 707q0 -18 -11.5 -29.5t-27.5 -11.5h-98q-15 0 -27 12t-12 29v190q0 16 11 27.5t28 11.5h98q16 0 27.5 -10.5t11.5 -28.5v-190z" />
    <glyph glyph-name="cedilla" unicode="&#xb8;" horiz-adv-x="750" 
d="M520 -80q0 -8 -8 -16l-231 -258q-17 -18 -25 -24.5t-23 -6.5h-110q-19 0 -19 14q0 13 9 21l198 254q18 20 26 25t25 5h136q22 0 22 -14z" />
    <glyph glyph-name="onesuperior" unicode="&#xb9;" horiz-adv-x="578" 
d="M393 707q0 -23 -20 -23h-92q-19 0 -19 23v684l-147 -64q-12 -4 -15 -4q-10 0 -10 12v86q0 13 14 19l150 67q29 15 51 15h66q10 0 16 -6t6 -15v-794z" />
    <glyph glyph-name="ordmasculine" unicode="&#xba;" horiz-adv-x="659" 
d="M596 1159q0 -95 -30 -161.5t-89 -101t-145 -34.5q-129 0 -197.5 77t-68.5 220v72q0 143 68.5 220t197.5 77t196.5 -76.5t67.5 -220.5v-72zM471 1159v72q0 96 -32.5 142t-106.5 46t-109 -46.5t-35 -141.5v-72q0 -95 35 -142.5t109 -47.5t106.5 47.5t32.5 142.5z" />
    <glyph glyph-name="guillemotright" unicode="&#xbb;" horiz-adv-x="1257" 
d="M1196 567q0 -14 -5 -29.5t-17 -27.5l-347 -346q-20 -21 -43 -21h-118q-23 0 -23 19q0 14 12 26l365 379l-365 379q-12 12 -12 27q0 18 23 18h118q23 0 43 -20l347 -346q22 -24 22 -58zM664 567q0 -34 -23 -57l-346 -346q-20 -21 -43 -21h-119q-22 0 -22 19q0 14 12 26
l364 379l-364 379q-12 12 -12 27q0 18 22 18h119q23 0 43 -20l346 -346q23 -25 23 -58z" />
    <glyph glyph-name="onequarter" unicode="&#xbc;" horiz-adv-x="1528" 
d="M1438 233q0 -22 -25 -22h-82v-184q0 -10 -6.5 -18.5t-15.5 -8.5h-86q-23 0 -23 27v184h-317q-25 0 -25 22v89q0 33 12 51l322 452q9 13 16 13h99q24 0 24 -23v-496h82q10 0 17.5 -6t7.5 -16v-64zM1202 1509q0 -6 -10 -26l-856 -1450q-13 -23 -22 -32t-23 -9h-101
q-20 0 -20 16q0 14 8 25l856 1450q18 26 25 32.5t22 6.5h105q16 0 16 -13zM393 707q0 -23 -20 -23h-92q-19 0 -19 23v684l-147 -64q-12 -4 -15 -4q-10 0 -10 12v86q0 13 14 19l150 67q29 15 51 15h66q10 0 16 -6t6 -15v-794zM1200 319v316q0 12 -4 12t-12 -10l-211 -299
q-4 -8 -4 -10q0 -9 16 -9h215z" />
    <glyph glyph-name="onehalf" unicode="&#xbd;" horiz-adv-x="1542" 
d="M1452 635q0 -63 -35.5 -116t-118.5 -109l-106 -74q-56 -38 -85.5 -70t-38.5 -63.5t-9 -75.5v-10h360q27 0 27 -21v-76q0 -20 -27 -20h-461q-24 0 -24 25v81q0 72 16.5 126t56 100t109.5 92l113 76q59 41 74.5 66t15.5 69q0 56 -34 75t-130 19q-99 0 -182 -14h-6
q-21 0 -21 20v64q0 12 25 20q106 25 196 25q95 0 157.5 -21t95 -66.5t32.5 -121.5zM1202 1509q0 -6 -10 -26l-856 -1450q-13 -23 -22 -32t-23 -9h-101q-20 0 -20 16q0 14 8 25l856 1450q18 26 25 32.5t22 6.5h105q16 0 16 -13zM393 707q0 -23 -20 -23h-92q-19 0 -19 23v684
l-147 -64q-12 -4 -15 -4q-10 0 -10 12v86q0 13 14 19l150 67q29 15 51 15h66q10 0 16 -6t6 -15v-794z" />
    <glyph glyph-name="threequarters" unicode="&#xbe;" horiz-adv-x="1690" 
d="M1599 233q0 -22 -24 -22h-82v-184q0 -11 -7 -19t-16 -8h-86q-22 0 -22 27v184h-318q-24 0 -24 22v89q0 33 12 51l322 452q9 13 16 13h98q25 0 25 -23v-496h82q10 0 17 -6.5t7 -15.5v-64zM1364 1509q0 -6 -10 -26l-856 -1450q-13 -23 -22 -32t-23 -9h-101q-20 0 -20 16
q0 14 8 25l856 1450q14 23 23 31t24 8h105q16 0 16 -13zM602 1311q0 -124 -100 -185q55 -32 76.5 -79t21.5 -99v-22q0 -124 -79.5 -183t-219.5 -59q-108 0 -190 25q-21 8 -21 22v60q0 22 21 22h4q86 -12 151 -12q113 0 159 25.5t46 99.5v22q0 50 -27.5 87.5t-95.5 37.5h-205
q-24 0 -24 23v63q0 23 24 23h201q127 0 127 118v13q0 64 -48 85t-147 21h-12q-47 0 -147 -14h-4q-21 0 -21 22v62q0 18 23 22q87 25 186 25q143 0 222 -48.5t79 -162.5v-14zM1362 319v316q0 12 -4 12t-12 -10l-211 -299l-5 -10q0 -9 17 -9h215z" />
    <glyph glyph-name="questiondown" unicode="&#xbf;" horiz-adv-x="913" 
d="M672 897q0 -14 -12.5 -27.5t-28.5 -13.5h-99q-14 0 -26 12t-12 29v190q0 39 38 39h99q15 0 28 -11t13 -28v-190zM831 -338q0 -22 -5.5 -32.5t-28.5 -14.5q-142 -27 -279 -27q-409 0 -409 310v24q0 50 15.5 98t53.5 105t117 147l92 105q66 75 87.5 112t21.5 99v100
q0 16 11.5 27.5t29.5 11.5h90q16 0 27.5 -11.5t11.5 -27.5v-100q0 -99 -27.5 -160.5t-108.5 -148.5l-94 -105q-75 -82 -101 -135t-26 -117v-24q0 -79 50.5 -113.5t158.5 -34.5q65 0 123 4.5t154 14.5h6q30 0 30 -35v-72z" />
    <glyph glyph-name="Agrave" unicode="&#xc0;" horiz-adv-x="1319" 
d="M1159 41q0 -17 -10.5 -29t-26.5 -12h-112q-16 0 -26.5 11.5t-10.5 29.5v606h-627v-606q0 -18 -10 -29.5t-27 -11.5h-112q-16 0 -26.5 12t-10.5 29v1071q0 155 48 248t144.5 134.5t247.5 41.5h119q150 0 246.5 -41.5t145 -134t48.5 -248.5v-1071zM973 811v301
q0 107 -24 162t-77.5 76.5t-152.5 21.5h-119q-143 0 -198.5 -52t-55.5 -208v-301h627zM788 1641q0 -14 -19 -14h-110q-15 0 -22 5.5t-25 25.5l-232 258q-8 8 -8 16q0 14 22 14h136q17 0 26.5 -5.5t24.5 -24.5l198 -254q9 -8 9 -21z" />
    <glyph glyph-name="Aacute" unicode="&#xc1;" horiz-adv-x="1319" 
d="M1159 41q0 -17 -10.5 -29t-26.5 -12h-112q-16 0 -26.5 11.5t-10.5 29.5v606h-627v-606q0 -18 -10 -29.5t-27 -11.5h-112q-16 0 -26.5 12t-10.5 29v1071q0 155 48 248t144.5 134.5t247.5 41.5h119q150 0 246.5 -41.5t145 -134t48.5 -248.5v-1071zM973 811v301
q0 107 -24 162t-77.5 76.5t-152.5 21.5h-119q-143 0 -198.5 -52t-55.5 -208v-301h627zM961 1932q0 -8 -8 -16l-232 -258q-18 -20 -25 -25.5t-22 -5.5h-110q-19 0 -19 14q0 13 8 21l201 254q19 21 26 25.5t23 4.5h135q23 0 23 -14z" />
    <glyph glyph-name="Acircumflex" unicode="&#xc2;" horiz-adv-x="1319" 
d="M1159 41q0 -17 -10.5 -29t-26.5 -12h-112q-16 0 -26.5 11.5t-10.5 29.5v606h-627v-606q0 -18 -10 -29.5t-27 -11.5h-112q-16 0 -26.5 12t-10.5 29v1071q0 155 48 248t144.5 134.5t247.5 41.5h119q150 0 246.5 -41.5t145 -134t48.5 -248.5v-1071zM973 811v301
q0 107 -24 162t-77.5 76.5t-152.5 21.5h-119q-143 0 -198.5 -52t-55.5 -208v-301h627zM999 1641q0 -14 -18 -14h-107q-15 0 -22 5.5t-25 25.5l-168 198l-170 -198q-18 -20 -25.5 -25.5t-21.5 -5.5h-107q-18 0 -18 14q0 13 8 21l197 254q16 20 24 25t25 5h174q26 0 51 -30
l195 -254q8 -8 8 -21z" />
    <glyph glyph-name="Atilde" unicode="&#xc3;" horiz-adv-x="1319" 
d="M1159 41q0 -17 -10.5 -29t-26.5 -12h-112q-16 0 -26.5 11.5t-10.5 29.5v606h-627v-606q0 -18 -10 -29.5t-27 -11.5h-112q-16 0 -26.5 12t-10.5 29v1071q0 155 48 248t144.5 134.5t247.5 41.5h119q150 0 246.5 -41.5t145 -134t48.5 -248.5v-1071zM973 811v301
q0 107 -24 162t-77.5 76.5t-152.5 21.5h-119q-143 0 -198.5 -52t-55.5 -208v-301h627zM1018 1831q0 -108 -45.5 -161.5t-146.5 -53.5q-78 0 -131 43l-125 100q-37 29 -51 37t-33 8q-36 0 -50 -23t-14 -71v-43q0 -14 -10.5 -24.5t-24.5 -10.5h-63q-15 0 -24 11t-9 24v43
q0 109 51.5 166t143.5 57q60 0 123 -49l145 -114q17 -14 37.5 -21.5t34.5 -7.5q32 0 46.5 20t14.5 70v47q0 13 11 24t24 11h63q14 0 23.5 -10t9.5 -25v-47z" />
    <glyph glyph-name="Adieresis" unicode="&#xc4;" horiz-adv-x="1319" 
d="M1159 41q0 -17 -10.5 -29t-26.5 -12h-112q-16 0 -26.5 11.5t-10.5 29.5v606h-627v-606q0 -18 -10 -29.5t-27 -11.5h-112q-16 0 -26.5 12t-10.5 29v1071q0 155 48 248t144.5 134.5t247.5 41.5h119q150 0 246.5 -41.5t145 -134t48.5 -248.5v-1071zM973 811v301
q0 107 -24 162t-77.5 76.5t-152.5 21.5h-119q-143 0 -198.5 -52t-55.5 -208v-301h627zM921 1694q0 -17 -12 -28t-29 -11h-80q-15 0 -28 11t-13 28v166q0 15 13 28t28 13h80q17 0 29 -13t12 -28v-166zM563 1694q0 -17 -13 -28t-28 -11h-80q-17 0 -29 11t-12 28v166
q0 15 12 28t29 13h80q15 0 28 -13t13 -28v-166z" />
    <glyph glyph-name="Aring" unicode="&#xc5;" horiz-adv-x="1319" 
d="M1159 41q0 -17 -10.5 -29t-26.5 -12h-112q-16 0 -26.5 11.5t-10.5 29.5v606h-627v-606q0 -18 -10 -29.5t-27 -11.5h-112q-16 0 -26.5 12t-10.5 29v1071q0 155 48 248t144.5 134.5t247.5 41.5h119q150 0 246.5 -41.5t145 -134t48.5 -248.5v-1071zM973 811v301
q0 107 -24 162t-77.5 76.5t-152.5 21.5h-119q-143 0 -198.5 -52t-55.5 -208v-301h627zM874 1798q0 -85 -61 -146t-146 -61q-57 0 -105 28t-76 75t-28 104t28 104.5t75.5 76t105.5 28.5t104.5 -28t74.5 -76t28 -105zM776 1800q0 45 -32.5 75.5t-76.5 30.5q-43 0 -75 -31
t-32 -75t31.5 -76.5t75.5 -32.5q45 0 77 32t32 77z" />
    <glyph glyph-name="AE" unicode="&#xc6;" horiz-adv-x="1942" 
d="M1829 35q0 -10 -5.5 -19t-15.5 -10q-119 -18 -399 -18q-219 0 -327.5 90t-108.5 291v278h-627v-606q0 -18 -10 -29.5t-27 -11.5h-112q-16 0 -26.5 12t-10.5 29v1071q0 155 48 248t144.5 134.5t247.5 41.5h119q237 0 342 -104q104 108 348 108q149 0 248.5 -5t150.5 -13
q10 -1 15.5 -9.5t5.5 -19.5v-96q0 -25 -23 -25h-395q-105 0 -157.5 -17.5t-73.5 -67t-21 -148.5v-265h629q17 0 29 -12t12 -28v-78q0 -17 -13 -29t-28 -12h-629v-346q0 -83 18 -127.5t72 -65t162 -20.5h395q23 0 23 -25v-96zM973 811v328q0 137 -57 185t-197 48h-119
q-143 0 -198.5 -52t-55.5 -208v-301h627z" />
    <glyph glyph-name="Ccedilla" unicode="&#xc7;" horiz-adv-x="1116" 
d="M1044 53q0 -34 -40 -41q-140 -26 -340 -26q-100 0 -196.5 32t-173.5 103t-124 195.5t-47 301.5v285q0 234 78.5 376t199.5 199.5t263 57.5q146 0 344 -33q32 -4 32 -26v-105q0 -22 -24 -22h-6q-222 18 -344 18q-165 0 -261 -109.5t-96 -355.5v-285q0 -244 96.5 -354
t260.5 -110q141 0 338 16h8q32 0 32 -33v-84zM780 -80q0 -8 -8 -16l-231 -258q-17 -19 -25 -25t-22 -6h-111q-18 0 -18 14q0 9 8 21l198 254q26 30 52 30h135q22 0 22 -14z" />
    <glyph glyph-name="Egrave" unicode="&#xc8;" horiz-adv-x="1128" 
d="M1016 25q0 -26 -21 -29q-96 -10 -399 -10q-219 0 -327.5 90t-108.5 291v788q0 200 108 290.5t328 90.5q88 0 145 -1t139 -4.5t115 -6.5q10 -1 15.5 -9.5t5.5 -19.5v-102q0 -25 -23 -25h-395q-108 0 -162 -20.5t-72 -65t-18 -127.5v-285h629q17 0 29 -12t12 -29v-77
q0 -17 -13 -29t-28 -12h-629v-344q0 -83 18 -127.5t72 -65t162 -20.5h395q23 0 23 -25v-104zM736 1639q0 -14 -19 -14h-110q-15 0 -22 5.5t-25 25.5l-232 258q-8 8 -8 16q0 14 22 14h136q17 0 26.5 -5.5t24.5 -24.5l198 -254q9 -8 9 -21z" />
    <glyph glyph-name="Eacute" unicode="&#xc9;" horiz-adv-x="1128" 
d="M1016 25q0 -26 -21 -29q-96 -10 -399 -10q-219 0 -327.5 90t-108.5 291v788q0 200 108 290.5t328 90.5q88 0 145 -1t139 -4.5t115 -6.5q10 -1 15.5 -9.5t5.5 -19.5v-102q0 -25 -23 -25h-395q-108 0 -162 -20.5t-72 -65t-18 -127.5v-285h629q17 0 29 -12t12 -29v-77
q0 -17 -13 -29t-28 -12h-629v-344q0 -83 18 -127.5t72 -65t162 -20.5h395q23 0 23 -25v-104zM892 1932q0 -8 -8 -16l-232 -258q-18 -20 -25 -25.5t-22 -5.5h-110q-19 0 -19 14q0 13 8 21l201 254q19 21 26 25.5t23 4.5h135q23 0 23 -14z" />
    <glyph glyph-name="Ecircumflex" unicode="&#xca;" horiz-adv-x="1128" 
d="M1016 25q0 -26 -21 -29q-96 -10 -399 -10q-219 0 -327.5 90t-108.5 291v788q0 200 108 290.5t328 90.5q88 0 145 -1t139 -4.5t115 -6.5q10 -1 15.5 -9.5t5.5 -19.5v-102q0 -25 -23 -25h-395q-108 0 -162 -20.5t-72 -65t-18 -127.5v-285h629q17 0 29 -12t12 -29v-77
q0 -17 -13 -29t-28 -12h-629v-344q0 -83 18 -127.5t72 -65t162 -20.5h395q23 0 23 -25v-104zM934 1641q0 -14 -18 -14h-107q-15 0 -22 5.5t-25 25.5l-168 198l-170 -198q-18 -20 -25.5 -25.5t-21.5 -5.5h-107q-18 0 -18 14q0 13 8 21l197 254q16 20 24 25t25 5h174
q26 0 51 -30l195 -254q8 -8 8 -21z" />
    <glyph glyph-name="Edieresis" unicode="&#xcb;" horiz-adv-x="1128" 
d="M1016 25q0 -26 -21 -29q-96 -10 -399 -10q-219 0 -327.5 90t-108.5 291v788q0 200 108 290.5t328 90.5q88 0 145 -1t139 -4.5t115 -6.5q10 -1 15.5 -9.5t5.5 -19.5v-102q0 -25 -23 -25h-395q-108 0 -162 -20.5t-72 -65t-18 -127.5v-285h629q17 0 29 -12t12 -29v-77
q0 -17 -13 -29t-28 -12h-629v-344q0 -83 18 -127.5t72 -65t162 -20.5h395q23 0 23 -25v-104zM868 1698q0 -17 -12 -28t-29 -11h-80q-15 0 -28 11t-13 28v166q0 15 13 28t28 13h80q17 0 29 -13t12 -28v-166zM510 1698q0 -17 -13 -28t-28 -11h-80q-17 0 -29 11t-12 28v166
q0 15 12 28t29 13h80q15 0 28 -13t13 -28v-166z" />
    <glyph glyph-name="Igrave" unicode="&#xcc;" horiz-adv-x="547" 
d="M367 41q0 -16 -10.5 -28.5t-26.5 -12.5h-113q-14 0 -25.5 11.5t-11.5 29.5v1442q0 15 11 27t26 12h113q15 0 26 -11t11 -28v-1442zM399 1641q0 -14 -19 -14h-110q-15 0 -22 5.5t-25 25.5l-232 258q-8 8 -8 16q0 14 22 14h136q17 0 26.5 -5.5t24.5 -24.5l198 -254
q9 -8 9 -21z" />
    <glyph glyph-name="Iacute" unicode="&#xcd;" horiz-adv-x="547" 
d="M367 41q0 -16 -10.5 -28.5t-26.5 -12.5h-113q-14 0 -25.5 11.5t-11.5 29.5v1442q0 15 11 27t26 12h113q15 0 26 -11t11 -28v-1442zM545 1932q0 -8 -8 -16l-232 -258q-18 -20 -25 -25.5t-22 -5.5h-110q-19 0 -19 14q0 13 8 21l201 254q19 21 26 25.5t23 4.5h135
q23 0 23 -14z" />
    <glyph glyph-name="Icircumflex" unicode="&#xce;" horiz-adv-x="547" 
d="M367 41q0 -16 -10.5 -28.5t-26.5 -12.5h-113q-14 0 -25.5 11.5t-11.5 29.5v1442q0 15 11 27t26 12h113q15 0 26 -11t11 -28v-1442zM606 1641q0 -14 -18 -14h-107q-15 0 -22 5.5t-25 25.5l-168 198l-170 -198q-18 -20 -25.5 -25.5t-21.5 -5.5h-107q-18 0 -18 14q0 13 8 21
l197 254q16 20 24 25t25 5h174q26 0 51 -30l195 -254q8 -8 8 -21z" />
    <glyph glyph-name="Idieresis" unicode="&#xcf;" horiz-adv-x="547" 
d="M367 41q0 -16 -10.5 -28.5t-26.5 -12.5h-113q-14 0 -25.5 11.5t-11.5 29.5v1442q0 15 11 27t26 12h113q15 0 26 -11t11 -28v-1442zM534 1696q0 -17 -12 -28t-29 -11h-80q-15 0 -28 11t-13 28v166q0 15 13 28t28 13h80q17 0 29 -13t12 -28v-166zM176 1696q0 -17 -13 -28
t-28 -11h-80q-17 0 -29 11t-12 28v166q0 15 12 28t29 13h80q15 0 28 -13t13 -28v-166z" />
    <glyph glyph-name="Eth" unicode="&#xd0;" horiz-adv-x="1313" 
d="M1196 623q0 -321 -164 -479t-457 -158q-78 0 -160.5 3.5t-125.5 7t-86 9.5t-43 51v654h-78q-17 0 -29 12t-12 29v77q0 17 11.5 29t29.5 12h78v594q0 44 43 52q43 6 86 9.5t125.5 7t160.5 3.5q195 0 333 -68t213 -211.5t75 -357.5v-276zM1010 623v276q0 177 -55.5 283
t-152 150t-227.5 44q-125 0 -227 -6v-500h211q19 0 30 -11t11 -30v-77q0 -18 -12 -29.5t-29 -11.5h-211v-561q66 -5 227 -5q204 0 319.5 109t115.5 369z" />
    <glyph glyph-name="Ntilde" unicode="&#xd1;" horiz-adv-x="1356" 
d="M1212 41q0 -18 -10 -29.5t-26 -11.5h-115q-15 0 -25 12t-10 29v905q0 255 -87 341.5t-290 86.5q-49 0 -85 -1t-82.5 -3t-82.5 -4.5t-53 -3.5v-1321q0 -18 -10 -29.5t-27 -11.5h-112q-17 0 -27 12t-10 29v1401q0 38 12.5 52t44.5 19q72 12 207.5 18.5t228.5 6.5
q143 0 246.5 -30t172.5 -96.5t104.5 -182.5t35.5 -283v-905zM1040 1827q0 -108 -45.5 -161.5t-146.5 -53.5q-78 0 -131 43l-125 100q-37 29 -51 37t-33 8q-36 0 -50 -23t-14 -71v-43q0 -14 -10.5 -24.5t-24.5 -10.5h-63q-15 0 -24 11t-9 24v43q0 109 51.5 166t143.5 57
q60 0 123 -49l145 -114q17 -14 37.5 -21.5t34.5 -7.5q32 0 46.5 20t14.5 70v47q0 13 11 24t24 11h63q14 0 23.5 -10t9.5 -25v-47z" />
    <glyph glyph-name="Ograve" unicode="&#xd2;" horiz-adv-x="1354" 
d="M1231 629q0 -167 -40 -289.5t-114 -201t-175.5 -115.5t-223.5 -37q-121 0 -223.5 37t-177 116.5t-114.5 203t-40 286.5v264q0 164 40 287t115 202.5t176.5 116.5t223.5 37q123 0 223.5 -37t174.5 -115.5t114.5 -200.5t40.5 -290v-264zM1042 629v264q0 125 -25.5 218
t-71.5 148.5t-112.5 82t-154.5 26.5q-367 0 -367 -475v-264q0 -166 44 -272.5t125.5 -154.5t197.5 -48q364 0 364 475zM812 1641q0 -14 -19 -14h-110q-15 0 -22 5.5t-25 25.5l-232 258q-8 8 -8 16q0 14 22 14h136q17 0 26.5 -5.5t24.5 -24.5l198 -254q9 -8 9 -21z" />
    <glyph glyph-name="Oacute" unicode="&#xd3;" horiz-adv-x="1354" 
d="M1231 629q0 -167 -40 -289.5t-114 -201t-175.5 -115.5t-223.5 -37q-121 0 -223.5 37t-177 116.5t-114.5 203t-40 286.5v264q0 164 40 287t115 202.5t176.5 116.5t223.5 37q123 0 223.5 -37t174.5 -115.5t114.5 -200.5t40.5 -290v-264zM1042 629v264q0 125 -25.5 218
t-71.5 148.5t-112.5 82t-154.5 26.5q-367 0 -367 -475v-264q0 -166 44 -272.5t125.5 -154.5t197.5 -48q364 0 364 475zM936 1932q0 -8 -8 -16l-232 -258q-18 -20 -25 -25.5t-22 -5.5h-110q-19 0 -19 14q0 13 8 21l201 254q19 21 26 25.5t23 4.5h135q23 0 23 -14z" />
    <glyph glyph-name="Ocircumflex" unicode="&#xd4;" horiz-adv-x="1354" 
d="M1231 629q0 -167 -40 -289.5t-114 -201t-175.5 -115.5t-223.5 -37q-121 0 -223.5 37t-177 116.5t-114.5 203t-40 286.5v264q0 164 40 287t115 202.5t176.5 116.5t223.5 37q123 0 223.5 -37t174.5 -115.5t114.5 -200.5t40.5 -290v-264zM1042 629v264q0 125 -25.5 218
t-71.5 148.5t-112.5 82t-154.5 26.5q-367 0 -367 -475v-264q0 -166 44 -272.5t125.5 -154.5t197.5 -48q364 0 364 475zM1018 1643q0 -14 -18 -14h-107q-15 0 -22 5.5t-25 25.5l-168 198l-170 -198q-18 -20 -25.5 -25.5t-21.5 -5.5h-107q-18 0 -18 14q0 13 8 21l197 254
q16 20 24 25t25 5h174q26 0 51 -30l195 -254q8 -8 8 -21z" />
    <glyph glyph-name="Otilde" unicode="&#xd5;" horiz-adv-x="1354" 
d="M1231 629q0 -167 -40 -289.5t-114 -201t-175.5 -115.5t-223.5 -37q-121 0 -223.5 37t-177 116.5t-114.5 203t-40 286.5v264q0 164 40 287t115 202.5t176.5 116.5t223.5 37q123 0 223.5 -37t174.5 -115.5t114.5 -200.5t40.5 -290v-264zM1042 629v264q0 125 -25.5 218
t-71.5 148.5t-112.5 82t-154.5 26.5q-367 0 -367 -475v-264q0 -166 44 -272.5t125.5 -154.5t197.5 -48q364 0 364 475zM1047 1831q0 -108 -45.5 -161.5t-146.5 -53.5q-78 0 -131 43l-125 100q-37 29 -51 37t-33 8q-36 0 -50 -23t-14 -71v-43q0 -14 -10.5 -24.5t-24.5 -10.5
h-63q-15 0 -24 11t-9 24v43q0 109 51.5 166t143.5 57q60 0 123 -49l145 -114q17 -14 37.5 -21.5t34.5 -7.5q32 0 46.5 20t14.5 70v47q0 13 11 24t24 11h63q14 0 23.5 -10t9.5 -25v-47z" />
    <glyph glyph-name="Odieresis" unicode="&#xd6;" horiz-adv-x="1354" 
d="M1231 629q0 -167 -40 -289.5t-114 -201t-175.5 -115.5t-223.5 -37q-121 0 -223.5 37t-177 116.5t-114.5 203t-40 286.5v264q0 164 40 287t115 202.5t176.5 116.5t223.5 37q123 0 223.5 -37t174.5 -115.5t114.5 -200.5t40.5 -290v-264zM1042 629v264q0 125 -25.5 218
t-71.5 148.5t-112.5 82t-154.5 26.5q-367 0 -367 -475v-264q0 -166 44 -272.5t125.5 -154.5t197.5 -48q364 0 364 475zM938 1698q0 -17 -12 -28t-29 -11h-80q-15 0 -28 11t-13 28v166q0 15 13 28t28 13h80q17 0 29 -13t12 -28v-166zM580 1698q0 -17 -13 -28t-28 -11h-80
q-17 0 -29 11t-12 28v166q0 15 12 28t29 13h80q15 0 28 -13t13 -28v-166z" />
    <glyph glyph-name="multiply" unicode="&#xd7;" 
d="M999 498q0 -11 -10 -21l-57 -57q-10 -10 -21 -10q-16 0 -32 16l-271 270l-268 -268q-16 -16 -33 -16q-10 0 -20 10l-58 57q-10 10 -10 21q0 17 17 32l268 269l-268 270q-17 15 -17 31q0 10 10 20l58 58q10 10 22 10q17 0 31 -14l268 -271l271 271q16 16 32 16
q11 0 21 -10l57 -58q10 -10 10 -20q0 -17 -16 -33l-270 -270l270 -271q16 -16 16 -32z" />
    <glyph glyph-name="Oslash" unicode="&#xd8;" horiz-adv-x="1354" 
d="M1296 1505q0 -7 -6 -16l-145 -201q86 -153 86 -395v-264q0 -167 -40 -289.5t-114 -201t-175.5 -115.5t-223.5 -37q-114 0 -210 32.5t-165 96.5l-63 -90q-30 -39 -52 -39h-108q-23 0 -23 22q0 7 6 17l148 204q-88 153 -88 400v264q0 164 40 287t115 202.5t176.5 116.5
t223.5 37q236 0 377 -131l59 84q29 39 53 39h107q22 0 22 -23zM946 1255q-91 113 -268 113q-367 0 -367 -475v-264q0 -118 27 -221zM1042 629v264q0 129 -24 217l-608 -848q90 -108 268 -108q88 0 154 26.5t112.5 82t72 148.5t25.5 218z" />
    <glyph glyph-name="Ugrave" unicode="&#xd9;" horiz-adv-x="1356" 
d="M1196 74q0 -36 -12 -48.5t-45 -17.5q-74 -11 -208.5 -17.5t-228.5 -6.5q-141 0 -245 30t-174.5 99t-105 182t-34.5 280v906q0 15 10.5 28t26.5 13h115q15 0 25 -12.5t10 -28.5v-906q0 -172 40 -266t121 -128t216 -34q134 0 303 13v1321q0 15 10 28t27 13h112
q17 0 27 -11.5t10 -29.5v-1407zM797 1641q0 -14 -19 -14h-110q-15 0 -22 5.5t-25 25.5l-232 258q-8 8 -8 16q0 14 22 14h136q17 0 26.5 -5.5t24.5 -24.5l198 -254q9 -8 9 -21z" />
    <glyph glyph-name="Uacute" unicode="&#xda;" horiz-adv-x="1356" 
d="M1196 74q0 -36 -12 -48.5t-45 -17.5q-74 -11 -208.5 -17.5t-228.5 -6.5q-141 0 -245 30t-174.5 99t-105 182t-34.5 280v906q0 15 10.5 28t26.5 13h115q15 0 25 -12.5t10 -28.5v-906q0 -172 40 -266t121 -128t216 -34q134 0 303 13v1321q0 15 10 28t27 13h112
q17 0 27 -11.5t10 -29.5v-1407zM980 1932q0 -8 -8 -16l-232 -258q-18 -20 -25 -25.5t-22 -5.5h-110q-19 0 -19 14q0 13 8 21l201 254q19 21 26 25.5t23 4.5h135q23 0 23 -14z" />
    <glyph glyph-name="Ucircumflex" unicode="&#xdb;" horiz-adv-x="1356" 
d="M1196 74q0 -36 -12 -48.5t-45 -17.5q-74 -11 -208.5 -17.5t-228.5 -6.5q-141 0 -245 30t-174.5 99t-105 182t-34.5 280v906q0 15 10.5 28t26.5 13h115q15 0 25 -12.5t10 -28.5v-906q0 -172 40 -266t121 -128t216 -34q134 0 303 13v1321q0 15 10 28t27 13h112
q17 0 27 -11.5t10 -29.5v-1407zM1012 1641q0 -14 -18 -14h-107q-15 0 -22 5.5t-25 25.5l-168 198l-170 -198q-18 -20 -25.5 -25.5t-21.5 -5.5h-107q-18 0 -18 14q0 13 8 21l197 254q16 20 24 25t25 5h174q26 0 51 -30l195 -254q8 -8 8 -21z" />
    <glyph glyph-name="Udieresis" unicode="&#xdc;" horiz-adv-x="1356" 
d="M1196 74q0 -36 -12 -48.5t-45 -17.5q-74 -11 -208.5 -17.5t-228.5 -6.5q-141 0 -245 30t-174.5 99t-105 182t-34.5 280v906q0 15 10.5 28t26.5 13h115q15 0 25 -12.5t10 -28.5v-906q0 -172 40 -266t121 -128t216 -34q134 0 303 13v1321q0 15 10 28t27 13h112
q17 0 27 -11.5t10 -29.5v-1407zM934 1698q0 -17 -12 -28t-29 -11h-80q-15 0 -28 11t-13 28v166q0 15 13 28t28 13h80q17 0 29 -13t12 -28v-166zM576 1698q0 -17 -13 -28t-28 -11h-80q-17 0 -29 11t-12 28v166q0 15 12 28t29 13h80q15 0 28 -13t13 -28v-166z" />
    <glyph glyph-name="Yacute" unicode="&#xdd;" horiz-adv-x="1221" 
d="M1139 1493q0 -9 -6 -23l-428 -852v-577q0 -16 -10.5 -28.5t-26.5 -12.5h-117q-15 0 -25 12t-10 29v577l-428 852q-6 17 -6 25q0 27 33 27h129q21 0 35 -29l331 -694l332 694q12 29 35 29h127q35 0 35 -29zM897 1932q0 -8 -8 -16l-232 -258q-18 -20 -25 -25.5t-22 -5.5
h-110q-19 0 -19 14q0 13 8 21l201 254q19 21 26 25.5t23 4.5h135q23 0 23 -14z" />
    <glyph glyph-name="Thorn" unicode="&#xde;" horiz-adv-x="1214" 
d="M1122 872q0 -462 -575 -462q-117 0 -203 6v-375q0 -17 -8.5 -29t-24.5 -12h-114q-16 0 -26.5 12t-10.5 29v1442q0 16 10.5 27.5t26.5 11.5h114q15 0 25 -11t10 -28v-142q20 1 53.5 2.5t73 3t70.5 1.5q579 0 579 -447v-29zM936 872v29q0 155 -95.5 220t-293.5 65
q-158 0 -203 -4v-607q141 -6 203 -6q200 0 294.5 71t94.5 232z" />
    <glyph glyph-name="germandbls" unicode="&#xdf;" horiz-adv-x="1190" 
d="M1079 440q0 -154 -65 -256.5t-174 -150t-246 -47.5q-36 0 -98 6q-41 4 -41 39v84q0 22 22 22q31 0 49.5 -0.5t38.5 -1.5q161 0 246.5 68t85.5 237v29q0 117 -83 189.5t-234 72.5h-76q-17 0 -29 13t-12 28v59q0 17 11.5 29t29.5 12h76q99 0 163 34.5t93.5 91.5t29.5 124
v25q0 75 -28 131t-88.5 86.5t-151.5 30.5q-94 0 -157.5 -36t-94.5 -111.5t-31 -194.5v-1010q0 -19 -10 -31t-26 -12h-109q-17 0 -27 13t-10 30v1010q0 129 32 221.5t92.5 154.5t147 92.5t193.5 30.5q135 0 235.5 -43.5t157 -134.5t56.5 -227v-25q0 -104 -61 -189t-155 -126
q111 -38 179.5 -128t68.5 -210v-29z" />
    <glyph glyph-name="agrave" unicode="&#xe0;" horiz-adv-x="1108" 
d="M969 80q0 -22 -8.5 -32t-34.5 -15q-190 -47 -377 -47q-149 0 -249.5 61.5t-149 176t-48.5 268.5v143q0 116 27 209t82.5 160t139 102t198.5 35q62 0 126.5 -6t131.5 -17t119 -24q26 -5 34.5 -14.5t8.5 -32.5v-967zM788 158v811q-44 7 -68.5 10t-76 6.5t-94.5 3.5
q-146 0 -206 -90.5t-60 -263.5v-143q0 -173 61 -264t205 -91q48 0 116 5.5t123 15.5zM705 1290q0 -14 -19 -14h-110q-15 0 -22 5.5t-25 25.5l-232 258q-8 8 -8 16q0 14 22 14h136q17 0 26.5 -5.5t24.5 -24.5l198 -254q9 -8 9 -21z" />
    <glyph glyph-name="aacute" unicode="&#xe1;" horiz-adv-x="1108" 
d="M969 80q0 -22 -8.5 -32t-34.5 -15q-190 -47 -377 -47q-149 0 -249.5 61.5t-149 176t-48.5 268.5v143q0 116 27 209t82.5 160t139 102t198.5 35q62 0 126.5 -6t131.5 -17t119 -24q26 -5 34.5 -14.5t8.5 -32.5v-967zM788 158v811q-44 7 -68.5 10t-76 6.5t-94.5 3.5
q-146 0 -206 -90.5t-60 -263.5v-143q0 -173 61 -264t205 -91q48 0 116 5.5t123 15.5zM843 1581q0 -8 -8 -16l-232 -258q-18 -20 -25 -25.5t-22 -5.5h-110q-19 0 -19 14q0 13 8 21l201 254q19 21 26 25.5t23 4.5h135q23 0 23 -14z" />
    <glyph glyph-name="acircumflex" unicode="&#xe2;" horiz-adv-x="1108" 
d="M969 80q0 -22 -8.5 -32t-34.5 -15q-190 -47 -377 -47q-149 0 -249.5 61.5t-149 176t-48.5 268.5v143q0 116 27 209t82.5 160t139 102t198.5 35q62 0 126.5 -6t131.5 -17t119 -24q26 -5 34.5 -14.5t8.5 -32.5v-967zM788 158v811q-44 7 -68.5 10t-76 6.5t-94.5 3.5
q-146 0 -206 -90.5t-60 -263.5v-143q0 -173 61 -264t205 -91q48 0 116 5.5t123 15.5zM893 1290q0 -14 -18 -14h-107q-15 0 -22 5.5t-25 25.5l-168 198l-170 -198q-18 -20 -25.5 -25.5t-21.5 -5.5h-107q-18 0 -18 14q0 13 8 21l197 254q16 20 24 25t25 5h174q26 0 51 -30
l195 -254q8 -8 8 -21z" />
    <glyph glyph-name="atilde" unicode="&#xe3;" horiz-adv-x="1108" 
d="M969 80q0 -22 -8.5 -32t-34.5 -15q-190 -47 -377 -47q-149 0 -249.5 61.5t-149 176t-48.5 268.5v143q0 116 27 209t82.5 160t139 102t198.5 35q62 0 126.5 -6t131.5 -17t119 -24q26 -5 34.5 -14.5t8.5 -32.5v-967zM788 158v811q-44 7 -68.5 10t-76 6.5t-94.5 3.5
q-146 0 -206 -90.5t-60 -263.5v-143q0 -173 61 -264t205 -91q48 0 116 5.5t123 15.5zM926 1497q0 -108 -45.5 -161.5t-146.5 -53.5q-78 0 -131 43l-125 100q-37 29 -51 37t-33 8q-36 0 -50 -23t-14 -71v-43q0 -14 -10.5 -24.5t-24.5 -10.5h-63q-15 0 -24 11t-9 24v43
q0 109 51.5 166t143.5 57q60 0 123 -49l145 -114q17 -14 37.5 -21.5t34.5 -7.5q32 0 46.5 20t14.5 70v47q0 13 11 24t24 11h63q14 0 23.5 -10t9.5 -25v-47z" />
    <glyph glyph-name="adieresis" unicode="&#xe4;" horiz-adv-x="1108" 
d="M969 80q0 -22 -8.5 -32t-34.5 -15q-190 -47 -377 -47q-149 0 -249.5 61.5t-149 176t-48.5 268.5v143q0 116 27 209t82.5 160t139 102t198.5 35q62 0 126.5 -6t131.5 -17t119 -24q26 -5 34.5 -14.5t8.5 -32.5v-967zM788 158v811q-44 7 -68.5 10t-76 6.5t-94.5 3.5
q-146 0 -206 -90.5t-60 -263.5v-143q0 -173 61 -264t205 -91q48 0 116 5.5t123 15.5zM815 1352q0 -17 -12 -28t-29 -11h-80q-15 0 -28 11t-13 28v166q0 15 13 28t28 13h80q17 0 29 -13t12 -28v-166zM457 1352q0 -17 -13 -28t-28 -11h-80q-17 0 -29 11t-12 28v166q0 15 12 28
t29 13h80q15 0 28 -13t13 -28v-166z" />
    <glyph glyph-name="aring" unicode="&#xe5;" horiz-adv-x="1108" 
d="M969 80q0 -22 -8.5 -32t-34.5 -15q-190 -47 -377 -47q-149 0 -249.5 61.5t-149 176t-48.5 268.5v143q0 116 27 209t82.5 160t139 102t198.5 35q62 0 126.5 -6t131.5 -17t119 -24q26 -5 34.5 -14.5t8.5 -32.5v-967zM788 158v811q-44 7 -68.5 10t-76 6.5t-94.5 3.5
q-146 0 -206 -90.5t-60 -263.5v-143q0 -173 61 -264t205 -91q48 0 116 5.5t123 15.5zM774 1440q0 -85 -61 -146t-146 -61q-57 0 -105 28t-76 75t-28 104t28 104.5t75.5 76t105.5 28.5t104.5 -28t74.5 -76t28 -105zM676 1442q0 45 -32.5 75.5t-76.5 30.5q-43 0 -75 -31
t-32 -75t31.5 -76.5t75.5 -32.5q45 0 77 32t32 77z" />
    <glyph glyph-name="ae" unicode="&#xe6;" horiz-adv-x="1747" 
d="M1645 551q0 -45 -39 -45h-682v-66q0 -156 73 -229.5t226 -73.5q74 0 175.5 9t174.5 20h4h6q33 0 33 -29v-69q0 -21 -8.5 -31.5t-32.5 -16.5q-83 -16 -172 -25t-191 -9q-83 0 -146 11.5t-115 38t-93 70.5q-69 -59 -166 -89.5t-203 -30.5q-166 0 -278.5 84.5t-112.5 253.5
v18q0 115 48.5 188t157.5 108.5t288 35.5h153v82q0 86 -21.5 136.5t-71 72.5t-128.5 22q-149 0 -313 -16h-4h-6q-37 0 -37 33v71q0 33 43 39q162 27 317 27q246 0 340 -144q122 144 334 144q111 0 195 -37t140.5 -104.5t84 -159t27.5 -203.5v-86zM1466 643v10
q0 165 -67 249.5t-201 84.5q-130 0 -202 -88t-72 -246v-10h542zM745 193v350h-153q-181 0 -246 -44.5t-65 -156.5v-18q0 -103 64 -149t169 -46q146 0 231 64z" />
    <glyph glyph-name="ccedilla" unicode="&#xe7;" horiz-adv-x="926" 
d="M836 53q0 -37 -41 -45q-125 -22 -256 -22q-135 0 -235 61t-151 173t-51 263v160q0 150 50.5 262.5t149.5 174t237 61.5q126 0 256 -23q24 -4 32.5 -13.5t8.5 -31.5v-74q0 -30 -35 -30h-8q-127 14 -254 14q-256 0 -256 -340v-160q0 -169 65.5 -254.5t190.5 -85.5
q130 0 254 15h8q35 0 35 -31v-74zM659 -80q0 -8 -8 -16l-231 -258q-17 -19 -25 -25t-22 -6h-111q-18 0 -18 14q0 13 8 21l199 254q25 30 51 30h135q22 0 22 -14z" />
    <glyph glyph-name="egrave" unicode="&#xe8;" horiz-adv-x="1114" 
d="M1012 551q0 -45 -39 -45h-686v-25q0 -115 35 -192.5t101.5 -114.5t162.5 -37q76 0 176.5 9t173.5 20h10q33 0 33 -29v-69q0 -21 -8.5 -31.5t-32.5 -16.5q-85 -16 -169 -25t-183 -9q-131 0 -238 47t-174.5 160t-67.5 299v143q0 145 53 260.5t156.5 180.5t245.5 65
q146 0 247.5 -64.5t152.5 -178.5t51 -261v-86zM829 643v10q0 165 -67 247.5t-201 82.5q-87 0 -148.5 -38t-93.5 -113t-32 -179v-10h542zM650 1290q0 -14 -19 -14h-110q-15 0 -22 5.5t-25 25.5l-232 258q-8 8 -8 16q0 14 22 14h136q17 0 26.5 -5.5t24.5 -24.5l198 -254
q9 -8 9 -21z" />
    <glyph glyph-name="eacute" unicode="&#xe9;" horiz-adv-x="1114" 
d="M1012 551q0 -45 -39 -45h-686v-25q0 -115 35 -192.5t101.5 -114.5t162.5 -37q76 0 176.5 9t173.5 20h10q33 0 33 -29v-69q0 -21 -8.5 -31.5t-32.5 -16.5q-85 -16 -169 -25t-183 -9q-131 0 -238 47t-174.5 160t-67.5 299v143q0 145 53 260.5t156.5 180.5t245.5 65
q146 0 247.5 -64.5t152.5 -178.5t51 -261v-86zM829 643v10q0 165 -67 247.5t-201 82.5q-87 0 -148.5 -38t-93.5 -113t-32 -179v-10h542zM889 1581q0 -8 -8 -16l-232 -258q-18 -20 -25 -25.5t-22 -5.5h-110q-19 0 -19 14q0 13 8 21l201 254q19 21 26 25.5t23 4.5h135
q23 0 23 -14z" />
    <glyph glyph-name="ecircumflex" unicode="&#xea;" horiz-adv-x="1114" 
d="M1012 551q0 -45 -39 -45h-686v-25q0 -115 35 -192.5t101.5 -114.5t162.5 -37q76 0 176.5 9t173.5 20h10q33 0 33 -29v-69q0 -21 -8.5 -31.5t-32.5 -16.5q-85 -16 -169 -25t-183 -9q-131 0 -238 47t-174.5 160t-67.5 299v143q0 145 53 260.5t156.5 180.5t245.5 65
q146 0 247.5 -64.5t152.5 -178.5t51 -261v-86zM829 643v10q0 165 -67 247.5t-201 82.5q-87 0 -148.5 -38t-93.5 -113t-32 -179v-10h542zM899 1290q0 -14 -18 -14h-107q-15 0 -22 5.5t-25 25.5l-168 198l-170 -198q-18 -20 -25.5 -25.5t-21.5 -5.5h-107q-18 0 -18 14
q0 13 8 21l197 254q16 20 24 25t25 5h174q26 0 51 -30l195 -254q8 -8 8 -21z" />
    <glyph glyph-name="edieresis" unicode="&#xeb;" horiz-adv-x="1114" 
d="M1012 551q0 -45 -39 -45h-686v-25q0 -115 35 -192.5t101.5 -114.5t162.5 -37q76 0 176.5 9t173.5 20h10q33 0 33 -29v-69q0 -21 -8.5 -31.5t-32.5 -16.5q-85 -16 -169 -25t-183 -9q-131 0 -238 47t-174.5 160t-67.5 299v143q0 145 53 260.5t156.5 180.5t245.5 65
q146 0 247.5 -64.5t152.5 -178.5t51 -261v-86zM829 643v10q0 165 -67 247.5t-201 82.5q-87 0 -148.5 -38t-93.5 -113t-32 -179v-10h542zM825 1352q0 -17 -12 -28t-29 -11h-80q-15 0 -28 11t-13 28v166q0 15 13 28t28 13h80q17 0 29 -13t12 -28v-166zM467 1352q0 -17 -13 -28
t-28 -11h-80q-17 0 -29 11t-12 28v166q0 15 12 28t29 13h80q15 0 28 -13t13 -28v-166z" />
    <glyph glyph-name="igrave" unicode="&#xec;" horiz-adv-x="506" 
d="M344 41q0 -18 -12 -29.5t-29 -11.5h-98q-17 0 -30 12t-13 29v1044q0 17 11.5 29t29.5 12h98q19 0 31 -11t12 -30v-1044zM378 1290q0 -14 -19 -14h-110q-15 0 -22 5.5t-25 25.5l-232 258q-8 8 -8 16q0 14 22 14h136q17 0 26.5 -5.5t24.5 -24.5l198 -254q9 -8 9 -21z" />
    <glyph glyph-name="iacute" unicode="&#xed;" horiz-adv-x="506" 
d="M344 41q0 -18 -12 -29.5t-29 -11.5h-98q-17 0 -30 12t-13 29v1044q0 17 11.5 29t29.5 12h98q19 0 31 -11t12 -30v-1044zM555 1581q0 -8 -8 -16l-232 -258q-18 -20 -25 -25.5t-22 -5.5h-110q-19 0 -19 14q0 13 8 21l201 254q19 21 26 25.5t23 4.5h135q23 0 23 -14z" />
    <glyph glyph-name="icircumflex" unicode="&#xee;" horiz-adv-x="506" 
d="M344 41q0 -18 -12 -29.5t-29 -11.5h-98q-17 0 -30 12t-13 29v1044q0 17 11.5 29t29.5 12h98q19 0 31 -11t12 -30v-1044zM592 1290q0 -14 -18 -14h-107q-15 0 -22 5.5t-25 25.5l-168 198l-170 -198q-18 -20 -25.5 -25.5t-21.5 -5.5h-107q-18 0 -18 14q0 13 8 21l197 254
q16 20 24 25t25 5h174q26 0 51 -30l195 -254q8 -8 8 -21z" />
    <glyph glyph-name="idieresis" unicode="&#xef;" horiz-adv-x="506" 
d="M344 41q0 -18 -12 -29.5t-29 -11.5h-98q-17 0 -30 12t-13 29v1044q0 17 11.5 29t29.5 12h98q19 0 31 -11t12 -30v-1044zM512 1352q0 -17 -12 -28t-29 -11h-80q-15 0 -28 11t-13 28v166q0 15 13 28t28 13h80q17 0 29 -13t12 -28v-166zM154 1352q0 -17 -13 -28t-28 -11h-80
q-17 0 -29 11t-12 28v166q0 15 12 28t29 13h80q15 0 28 -13t13 -28v-166z" />
    <glyph glyph-name="eth" unicode="&#xf0;" horiz-adv-x="1116" 
d="M1014 498q0 -249 -115.5 -380.5t-337.5 -131.5q-155 0 -256.5 61t-152 175t-50.5 276v112q0 125 29 219t87.5 160.5t144 99.5t196.5 33q147 0 229 -73q-31 81 -105.5 152t-195.5 128l-176 -135q-15 -12 -26 -12t-23 12l-35 39q-6 6 -6 14q0 20 21 35l125 96
q-88 30 -162 45q-33 8 -33 31q0 6 2 10l25 70q7 22 28 22q11 0 17 -2q138 -32 254 -75l192 145q11 8 27 8q14 0 24 -10l35 -37q8 -8 8 -16q0 -12 -20 -29l-150 -115q116 -65 195 -145t123 -173.5t63 -214t19 -282.5v-112zM834 498v112q0 87 -15 154.5t-48.5 113t-85.5 68.5
t-126 23q-98 0 -158.5 -41.5t-88 -119.5t-27.5 -198v-112q0 -177 66 -267t210 -90q96 0 157 40.5t88.5 119t27.5 197.5z" />
    <glyph glyph-name="ntilde" unicode="&#xf1;" horiz-adv-x="1141" 
d="M1001 41q0 -19 -10 -30t-26 -11h-107q-15 0 -26 12t-11 29v731q0 81 -15.5 126t-55 66t-107.5 21h-145q-103 0 -141 -48t-38 -165v-731q0 -19 -10 -30t-26 -11h-107q-15 0 -26 12t-11 29v731q0 145 56.5 227.5t137 112t165.5 29.5h145q141 0 249.5 -79.5t108.5 -289.5
v-731zM942 1497q0 -108 -45.5 -161.5t-146.5 -53.5q-78 0 -131 43l-125 100q-37 29 -51 37t-33 8q-36 0 -50 -23t-14 -71v-43q0 -14 -10.5 -24.5t-24.5 -10.5h-63q-15 0 -24 11t-9 24v43q0 109 51.5 166t143.5 57q60 0 123 -49l145 -114q17 -14 37.5 -21.5t34.5 -7.5
q32 0 46.5 20t14.5 70v47q0 13 11 24t24 11h63q14 0 23.5 -10t9.5 -25v-47z" />
    <glyph glyph-name="ograve" unicode="&#xf2;" horiz-adv-x="1116" 
d="M1014 485q0 -152 -52 -264t-155 -173.5t-250 -61.5q-220 0 -337.5 134.5t-117.5 364.5v156q0 231 117.5 365.5t337.5 134.5q114 0 198.5 -35t142.5 -100.5t87 -158.5t29 -206v-156zM834 485v156q0 162 -68 252t-209 90q-138 0 -206 -89.5t-68 -252.5v-156
q0 -342 274 -342q140 0 208.5 89t68.5 253zM676 1290q0 -14 -19 -14h-110q-15 0 -22 5.5t-25 25.5l-232 258q-8 8 -8 16q0 14 22 14h136q17 0 26.5 -5.5t24.5 -24.5l198 -254q9 -8 9 -21z" />
    <glyph glyph-name="oacute" unicode="&#xf3;" horiz-adv-x="1116" 
d="M1014 485q0 -152 -52 -264t-155 -173.5t-250 -61.5q-220 0 -337.5 134.5t-117.5 364.5v156q0 231 117.5 365.5t337.5 134.5q114 0 198.5 -35t142.5 -100.5t87 -158.5t29 -206v-156zM834 485v156q0 162 -68 252t-209 90q-138 0 -206 -89.5t-68 -252.5v-156
q0 -342 274 -342q140 0 208.5 89t68.5 253zM871 1581q0 -8 -8 -16l-232 -258q-18 -20 -25 -25.5t-22 -5.5h-110q-19 0 -19 14q0 13 8 21l201 254q19 21 26 25.5t23 4.5h135q23 0 23 -14z" />
    <glyph glyph-name="ocircumflex" unicode="&#xf4;" horiz-adv-x="1116" 
d="M1014 485q0 -152 -52 -264t-155 -173.5t-250 -61.5q-220 0 -337.5 134.5t-117.5 364.5v156q0 231 117.5 365.5t337.5 134.5q114 0 198.5 -35t142.5 -100.5t87 -158.5t29 -206v-156zM834 485v156q0 162 -68 252t-209 90q-138 0 -206 -89.5t-68 -252.5v-156
q0 -342 274 -342q140 0 208.5 89t68.5 253zM901 1290q0 -14 -18 -14h-107q-15 0 -22 5.5t-25 25.5l-168 198l-170 -198q-18 -20 -25.5 -25.5t-21.5 -5.5h-107q-18 0 -18 14q0 13 8 21l197 254q16 20 24 25t25 5h174q26 0 51 -30l195 -254q8 -8 8 -21z" />
    <glyph glyph-name="otilde" unicode="&#xf5;" horiz-adv-x="1116" 
d="M1014 485q0 -152 -52 -264t-155 -173.5t-250 -61.5q-220 0 -337.5 134.5t-117.5 364.5v156q0 231 117.5 365.5t337.5 134.5q114 0 198.5 -35t142.5 -100.5t87 -158.5t29 -206v-156zM834 485v156q0 162 -68 252t-209 90q-138 0 -206 -89.5t-68 -252.5v-156
q0 -342 274 -342q140 0 208.5 89t68.5 253zM934 1497q0 -108 -45.5 -161.5t-146.5 -53.5q-78 0 -131 43l-125 100q-37 29 -51 37t-33 8q-36 0 -50 -23t-14 -71v-43q0 -14 -10.5 -24.5t-24.5 -10.5h-63q-15 0 -24 11t-9 24v43q0 109 51.5 166t143.5 57q60 0 123 -49l145 -114
q17 -14 37.5 -21.5t34.5 -7.5q32 0 46.5 20t14.5 70v47q0 13 11 24t24 11h63q14 0 23.5 -10t9.5 -25v-47z" />
    <glyph glyph-name="odieresis" unicode="&#xf6;" horiz-adv-x="1116" 
d="M1014 485q0 -152 -52 -264t-155 -173.5t-250 -61.5q-220 0 -337.5 134.5t-117.5 364.5v156q0 231 117.5 365.5t337.5 134.5q114 0 198.5 -35t142.5 -100.5t87 -158.5t29 -206v-156zM834 485v156q0 162 -68 252t-209 90q-138 0 -206 -89.5t-68 -252.5v-156
q0 -342 274 -342q140 0 208.5 89t68.5 253zM815 1352q0 -17 -12 -28t-29 -11h-80q-15 0 -28 11t-13 28v166q0 15 13 28t28 13h80q17 0 29 -13t12 -28v-166zM457 1352q0 -17 -13 -28t-28 -11h-80q-17 0 -29 11t-12 28v166q0 15 12 28t29 13h80q15 0 28 -13t13 -28v-166z" />
    <glyph glyph-name="divide" unicode="&#xf7;" 
d="M707 1079q0 -15 -12 -28t-27 -13h-99q-14 0 -27.5 12.5t-13.5 28.5v181q0 16 13 27t28 11h99q16 0 27.5 -11.5t11.5 -26.5v-181zM1055 760q0 -33 -41 -33h-789q-41 0 -41 33v82q0 32 41 32h789q41 0 41 -32v-82zM707 332q0 -16 -11.5 -27.5t-27.5 -11.5h-99q-15 0 -28 11
t-13 28v182q0 16 12.5 27.5t28.5 11.5h99q17 0 28 -12t11 -27v-182z" />
    <glyph glyph-name="oslash" unicode="&#xf8;" horiz-adv-x="1116" 
d="M1081 1178q0 -15 -8 -23l-143 -192q84 -128 84 -322v-156q0 -152 -52 -264t-155 -173.5t-250 -61.5q-174 0 -285 86l-90 -123q-15 -21 -32 -21h-101q-16 0 -16 17q0 14 8 22l145 197q-84 128 -84 321v156q0 231 117.5 365.5t337.5 134.5q61 0 111 -10t94.5 -29t81.5 -47
l86 119q16 20 33 20h102q16 0 16 -16zM741 920q-69 63 -184 63q-274 0 -274 -342v-156q0 -94 20 -161zM834 485v156q0 83 -23 160l-438 -594q67 -64 184 -64q277 0 277 342z" />
    <glyph glyph-name="ugrave" unicode="&#xf9;" horiz-adv-x="1141" 
d="M1001 467q0 -143 -42.5 -238.5t-108.5 -148t-137.5 -73.5t-132.5 -21h-19q-90 0 -185 40.5t-166 148t-71 292.5v618q0 17 10.5 29t26.5 12h107q17 0 26.5 -11t9.5 -30v-618q0 -174 65 -249t177 -75h19q112 0 176.5 75t64.5 249v618q0 17 10.5 29t26.5 12h107
q17 0 26.5 -11t9.5 -30v-618zM688 1290q0 -14 -19 -14h-110q-15 0 -22 5.5t-25 25.5l-232 258q-8 8 -8 16q0 14 22 14h136q17 0 26.5 -5.5t24.5 -24.5l198 -254q9 -8 9 -21z" />
    <glyph glyph-name="uacute" unicode="&#xfa;" horiz-adv-x="1141" 
d="M1001 467q0 -143 -42.5 -238.5t-108.5 -148t-137.5 -73.5t-132.5 -21h-19q-90 0 -185 40.5t-166 148t-71 292.5v618q0 17 10.5 29t26.5 12h107q17 0 26.5 -11t9.5 -30v-618q0 -174 65 -249t177 -75h19q112 0 176.5 75t64.5 249v618q0 17 10.5 29t26.5 12h107
q17 0 26.5 -11t9.5 -30v-618zM889 1581q0 -8 -8 -16l-232 -258q-18 -20 -25 -25.5t-22 -5.5h-110q-19 0 -19 14q0 13 8 21l201 254q19 21 26 25.5t23 4.5h135q23 0 23 -14z" />
    <glyph glyph-name="ucircumflex" unicode="&#xfb;" horiz-adv-x="1141" 
d="M1001 467q0 -143 -42.5 -238.5t-108.5 -148t-137.5 -73.5t-132.5 -21h-19q-90 0 -185 40.5t-166 148t-71 292.5v618q0 17 10.5 29t26.5 12h107q17 0 26.5 -11t9.5 -30v-618q0 -174 65 -249t177 -75h19q112 0 176.5 75t64.5 249v618q0 17 10.5 29t26.5 12h107
q17 0 26.5 -11t9.5 -30v-618zM913 1290q0 -14 -18 -14h-107q-15 0 -22 5.5t-25 25.5l-168 198l-170 -198q-18 -20 -25.5 -25.5t-21.5 -5.5h-107q-18 0 -18 14q0 13 8 21l197 254q16 20 24 25t25 5h174q26 0 51 -30l195 -254q8 -8 8 -21z" />
    <glyph glyph-name="udieresis" unicode="&#xfc;" horiz-adv-x="1141" 
d="M1001 467q0 -143 -42.5 -238.5t-108.5 -148t-137.5 -73.5t-132.5 -21h-19q-90 0 -185 40.5t-166 148t-71 292.5v618q0 17 10.5 29t26.5 12h107q17 0 26.5 -11t9.5 -30v-618q0 -174 65 -249t177 -75h19q112 0 176.5 75t64.5 249v618q0 17 10.5 29t26.5 12h107
q17 0 26.5 -11t9.5 -30v-618zM829 1352q0 -17 -12 -28t-29 -11h-80q-15 0 -28 11t-13 28v166q0 15 13 28t28 13h80q17 0 29 -13t12 -28v-166zM471 1352q0 -17 -13 -28t-28 -11h-80q-17 0 -29 11t-12 28v166q0 15 12 28t29 13h80q15 0 28 -13t13 -28v-166z" />
    <glyph glyph-name="yacute" unicode="&#xfd;" horiz-adv-x="1141" 
d="M1001 0q0 -118 -25.5 -197.5t-78 -125.5t-128 -64.5t-185.5 -18.5q-201 0 -338 35q-23 8 -31 17t-8 26v58q0 16 10 25t27 9h6q9 -1 75 -8t142 -11.5t117 -4.5q95 0 146.5 20.5t73 76t21.5 163.5v10q-35 -10 -107.5 -17t-119.5 -7q-459 0 -459 424v675q0 17 12 29t29 12
h99q18 0 29 -11t11 -30v-675q0 -155 69.5 -213t209.5 -58q109 0 223 27v919q0 17 12 29t29 12h99q18 0 29 -11t11 -30v-1085zM913 1581q0 -8 -8 -16l-232 -258q-18 -20 -25 -25.5t-22 -5.5h-110q-19 0 -19 14q0 13 8 21l201 254q19 21 26 25.5t23 4.5h135q23 0 23 -14z" />
    <glyph glyph-name="thorn" unicode="&#xfe;" horiz-adv-x="1108" 
d="M1006 487q0 -243 -113 -372t-334 -129q-114 0 -240 22v-370q0 -16 -10.5 -27.5t-27.5 -11.5h-105q-15 0 -26 11t-11 28v1861q0 17 12 29t29 12h99q18 0 29 -11t11 -30v-379q129 21 240 21q115 0 198 -34.5t140 -102t83 -160.5t26 -209v-148zM825 487v148q0 172 -61 263
t-205 91q-124 0 -240 -20v-811q110 -21 240 -21q144 0 205 88t61 262z" />
    <glyph glyph-name="ydieresis" unicode="&#xff;" horiz-adv-x="1141" 
d="M1001 0q0 -118 -25.5 -197.5t-78 -125.5t-128 -64.5t-185.5 -18.5q-201 0 -338 35q-23 8 -31 17t-8 26v58q0 16 10 25t27 9h6q9 -1 75 -8t142 -11.5t117 -4.5q95 0 146.5 20.5t73 76t21.5 163.5v10q-35 -10 -107.5 -17t-119.5 -7q-459 0 -459 424v675q0 17 12 29t29 12
h99q18 0 29 -11t11 -30v-675q0 -155 69.5 -213t209.5 -58q109 0 223 27v919q0 17 12 29t29 12h99q18 0 29 -11t11 -30v-1085zM827 1352q0 -17 -12 -28t-29 -11h-80q-15 0 -28 11t-13 28v166q0 15 13 28t28 13h80q17 0 29 -13t12 -28v-166zM469 1352q0 -17 -13 -28t-28 -11
h-80q-17 0 -29 11t-12 28v166q0 15 12 28t29 13h80q15 0 28 -13t13 -28v-166z" />
    <glyph glyph-name="dotlessi" unicode="&#x131;" horiz-adv-x="506" 
d="M344 41q0 -18 -12 -29.5t-29 -11.5h-98q-17 0 -30 12t-13 29v1044q0 17 11.5 29t29.5 12h98q19 0 31 -11t12 -30v-1044z" />
    <glyph glyph-name="Lslash" unicode="&#x141;" horiz-adv-x="1053" 
d="M1016 33q0 -26 -21 -29q-36 -6 -160.5 -12t-238.5 -6q-219 0 -327.5 90t-108.5 291v239l-125 -153q-9 -13 -23 -13t-14 13v129v2q0 26 14 45l148 182v670q0 15 12 28t29 13h104q17 0 29 -12t12 -29v-443l139 172q12 15 23 15q14 0 14 -15v-133q0 -25 -16 -47l-160 -196
v-467q0 -83 18 -127.5t72 -65t162 -20.5h395q23 0 23 -25v-96z" />
    <glyph glyph-name="lslash" unicode="&#x142;" horiz-adv-x="500" 
d="M508 1069q0 -17 -12 -33l-156 -192v-803q0 -19 -10 -30t-27 -11h-106q-16 0 -26.5 11.5t-10.5 29.5v582l-140 -170q-7 -11 -18 -11q-18 0 -18 17v123v2q0 28 14 45l162 198v674q0 15 9.5 27t27.5 12h106q17 0 27 -11t10 -28v-452l131 161q7 11 18 11q19 0 19 -19v-133z
" />
    <glyph glyph-name="OE" unicode="&#x152;" horiz-adv-x="2013" 
d="M1901 31q0 -10 -6.5 -19t-14.5 -10q-36 -6 -160.5 -12t-238.5 -6q-301 0 -391 170q-72 -84 -177 -126t-235 -42q-121 0 -223.5 37t-177 116.5t-114.5 203t-40 286.5v264q0 164 40 287t115 202.5t176.5 116.5t223.5 37q130 0 235 -41.5t177 -126.5q90 168 391 168
q149 0 248.5 -5t150.5 -13q9 -1 15 -9.5t6 -19.5v-96q0 -25 -23 -25h-395q-108 0 -162 -20.5t-72 -65t-18 -127.5v-285h629q17 0 29 -12t12 -29v-77q0 -17 -13 -29t-28 -12h-629v-346q0 -83 18 -127.5t72 -65t162 -20.5h395q23 0 23 -25v-96zM1044 627v274q0 138 -33 241.5
t-114.5 164.5t-218.5 61q-116 0 -197.5 -48t-125.5 -154.5t-44 -272.5v-264q0 -166 44 -272.5t125.5 -154.5t197.5 -48q366 0 366 473z" />
    <glyph glyph-name="oe" unicode="&#x153;" horiz-adv-x="1845" 
d="M1739 551q0 -45 -39 -45h-682v-25q0 -115 35 -192.5t101.5 -114.5t162.5 -37q76 0 176.5 9t173.5 20h10q33 0 33 -29v-69q0 -21 -8.5 -31.5t-32.5 -16.5q-85 -16 -169 -25t-183 -9q-56 0 -109 9t-105.5 30t-96 54t-76.5 79q-120 -172 -369 -172q-220 0 -337.5 134.5
t-117.5 364.5v156q0 231 117.5 365.5t337.5 134.5q249 0 371 -176q58 83 150 129.5t210 46.5q111 0 195 -37t140.5 -104.5t84 -159t27.5 -203.5v-86zM1561 643v10q0 166 -67 250t-202 84q-130 0 -202 -88t-72 -246v-10h543zM840 485v156q0 163 -69 252.5t-210 89.5
q-138 0 -206 -89.5t-68 -252.5v-156q0 -342 274 -342q139 0 209 89.5t70 252.5z" />
    <glyph glyph-name="Scaron" unicode="&#x160;" horiz-adv-x="1126" 
d="M1024 395q0 -174 -114.5 -291.5t-391.5 -117.5q-160 0 -340 28q-24 4 -31.5 11.5t-7.5 25.5v82q0 33 35 33h6q141 -12 338 -12q173 0 242 61.5t69 179.5q0 76 -51 132t-194 143l-199 121q-148 90 -215.5 177.5t-67.5 205.5q0 181 126.5 271.5t363.5 90.5q69 0 134.5 -3.5
t115.5 -8t106 -13.5q35 -7 35 -34v-88q0 -33 -35 -33h-4q-180 12 -352 12q-163 0 -232 -42.5t-69 -151.5q0 -69 49 -121t174 -127l188 -113q117 -70 188 -134.5t102.5 -132.5t31.5 -151zM934 1932q0 -12 -8 -20l-199 -254q-16 -20 -24.5 -25.5t-26.5 -5.5h-174
q-17 0 -25 5.5t-24 25.5l-201 254q-8 8 -8 20q0 14 18 14h111q14 0 20.5 -4.5t26.5 -27.5l170 -197l168 197q20 23 26 27.5t21 4.5h111q18 0 18 -14z" />
    <glyph glyph-name="scaron" unicode="&#x161;" horiz-adv-x="954" 
d="M852 283q0 -152 -102 -224.5t-281 -72.5q-70 0 -165 8t-159 22q-43 12 -43 41v72q0 14 11 22.5t26 8.5h8q175 -23 322 -23q103 0 153 32.5t50 113.5q0 46 -33 82t-121 88l-207 122q-103 63 -156 132t-53 161q0 150 98.5 211.5t272.5 61.5q156 0 320 -27q38 -6 38 -41v-67
q0 -35 -34 -35h-6q-192 16 -318 16q-99 0 -144.5 -23.5t-45.5 -95.5q0 -42 32 -75.5t109 -79.5l203 -121q124 -73 174.5 -145t50.5 -164zM811 1581q0 -12 -8 -20l-199 -254q-16 -20 -24.5 -25.5t-26.5 -5.5h-174q-17 0 -25 5.5t-24 25.5l-201 254q-8 8 -8 20q0 14 18 14h111
q14 0 20.5 -4.5t26.5 -27.5l170 -197l168 197q20 23 26 27.5t21 4.5h111q18 0 18 -14z" />
    <glyph glyph-name="Ydieresis" unicode="&#x178;" horiz-adv-x="1221" 
d="M1139 1493q0 -9 -6 -23l-428 -852v-577q0 -16 -10.5 -28.5t-26.5 -12.5h-117q-15 0 -25 12t-10 29v577l-428 852q-6 17 -6 25q0 27 33 27h129q21 0 35 -29l331 -694l332 694q12 29 35 29h127q35 0 35 -29zM868 1681q0 -17 -12 -28t-29 -11h-80q-15 0 -28 11t-13 28v166
q0 15 13 28t28 13h80q17 0 29 -13t12 -28v-166zM510 1681q0 -17 -13 -28t-28 -11h-80q-17 0 -29 11t-12 28v166q0 15 12 28t29 13h80q15 0 28 -13t13 -28v-166z" />
    <glyph glyph-name="Zcaron" unicode="&#x17d;" horiz-adv-x="1214" 
d="M1112 37q0 -17 -11.5 -27t-29.5 -10h-788q-83 0 -126.5 43.5t-43.5 108.5q0 60 30 106l734 1067q6 9 6 16q0 15 -21 15h-680q-16 0 -28.5 9.5t-12.5 25.5v96q0 15 12.5 25t28.5 10h729q57 0 96.5 -20t58.5 -54t19 -74q0 -60 -32 -108l-731 -1067q-7 -8 -7 -19
q0 -12 21 -12h735q41 0 41 -35v-96zM962 1932q0 -12 -8 -20l-199 -254q-16 -20 -24.5 -25.5t-26.5 -5.5h-174q-17 0 -25 5.5t-24 25.5l-201 254q-8 8 -8 20q0 14 18 14h111q14 0 20.5 -4.5t26.5 -27.5l170 -197l168 197q20 23 26 27.5t21 4.5h111q18 0 18 -14z" />
    <glyph glyph-name="zcaron" unicode="&#x17e;" horiz-adv-x="987" 
d="M885 41q0 -17 -13 -29t-28 -12h-541q-96 0 -149.5 32t-53.5 118q0 78 47 135l529 657q8 12 8 19q0 14 -20 14h-498q-17 0 -29 12t-12 29v69q0 17 11.5 29t29.5 12h506q69 0 114.5 -13.5t68 -44t22.5 -83.5q0 -73 -46 -127l-534 -668q-10 -10 -10 -22q0 -16 20 -16h537
q15 0 28 -13t13 -28v-70zM846 1581q0 -12 -8 -20l-199 -254q-16 -20 -24.5 -25.5t-26.5 -5.5h-174q-17 0 -25 5.5t-24 25.5l-201 254q-8 8 -8 20q0 14 18 14h111q14 0 20.5 -4.5t26.5 -27.5l170 -197l168 197q20 23 26 27.5t21 4.5h111q18 0 18 -14z" />
    <glyph glyph-name="florin" unicode="&#x192;" 
d="M1122 1520v-7l-8 -65q-3 -31 -49 -31h-113q-74 0 -107 -29.5t-44 -109.5l-56 -401h293q35 0 35 -31v-6l-10 -76q-2 -16 -15 -26.5t-30 -10.5h-293l-102 -731q-14 -102 -59 -165t-111.5 -89.5t-157.5 -26.5q-75 0 -141 11q-35 5 -35 28v6l8 66q3 31 49 31h113
q74 0 107.5 30t43.5 109l103 731h-262q-17 0 -27 8.5t-10 24.5v4l10 76q1 15 15.5 26t31.5 11h262l55 401q38 281 328 281q59 0 141 -11q35 -5 35 -28z" />
    <glyph glyph-name="circumflex" unicode="&#x2c6;" horiz-adv-x="764" 
d="M723 1290q0 -14 -18 -14h-107q-15 0 -22 5.5t-25 25.5l-168 198l-170 -198q-18 -20 -25.5 -25.5t-21.5 -5.5h-107q-18 0 -18 14q0 13 8 21l197 254q16 20 24 25t25 5h174q26 0 51 -30l195 -254q8 -8 8 -21z" />
    <glyph glyph-name="caron" unicode="&#x2c7;" horiz-adv-x="764" 
d="M727 1581q0 -12 -8 -20l-199 -254q-16 -20 -24.5 -25.5t-26.5 -5.5h-174q-17 0 -25 5.5t-24 25.5l-201 254q-8 8 -8 20q0 14 18 14h111q14 0 20.5 -4.5t26.5 -27.5l170 -197l168 197q20 23 26 27.5t21 4.5h111q18 0 18 -14z" />
    <glyph glyph-name="macron" unicode="&#x2c9;" horiz-adv-x="764" 
d="M719 1417q0 -16 -12 -25.5t-29 -9.5h-590q-17 0 -29 9.5t-12 25.5v70q0 16 12 25.5t29 9.5h590q17 0 29 -9.5t12 -25.5v-70z" />
    <glyph glyph-name="breve" unicode="&#x2d8;" horiz-adv-x="764" 
d="M717 1569v-8q-7 -92 -56 -157.5t-123 -98.5t-155 -33t-155.5 33t-123 97.5t-55.5 158.5v8q0 26 23 26h75q28 0 31 -32q9 -78 68 -121t137 -43t137.5 43.5t67.5 120.5q3 32 30 32h76q23 0 23 -26z" />
    <glyph glyph-name="dotaccent" unicode="&#x2d9;" horiz-adv-x="764" 
d="M471 1348q0 -18 -12 -29.5t-27 -11.5h-98q-16 0 -28.5 11.5t-12.5 29.5v172q0 16 12.5 27.5t28.5 11.5h98q15 0 27 -11t12 -28v-172z" />
    <glyph glyph-name="ring" unicode="&#x2da;" horiz-adv-x="764" 
d="M590 1440q0 -85 -61 -146t-146 -61q-57 0 -105 28t-76 75t-28 104t28 104.5t75.5 76t105.5 28.5t104.5 -28t74.5 -76t28 -105zM492 1442q0 45 -32.5 75.5t-76.5 30.5q-43 0 -75 -31t-32 -75t31.5 -76.5t75.5 -32.5q45 0 77 32t32 77z" />
    <glyph glyph-name="ogonek" unicode="&#x2db;" horiz-adv-x="750" 
d="M621 -350q0 -10 -5 -15t-18 -8q-101 -26 -168 -26q-141 0 -204.5 76t-63.5 200q0 84 26 180q4 13 9 16t20 3h82q18 0 18 -13q0 -4 -0.5 -6.5t-1.5 -5.5q-20 -98 -20 -162q0 -78 35.5 -124t122.5 -46q55 0 137 19q6 2 16 2q15 0 15 -14v-76z" />
    <glyph glyph-name="tilde" unicode="&#x2dc;" horiz-adv-x="1010" 
d="M858 1497q0 -108 -45.5 -161.5t-146.5 -53.5q-78 0 -131 43l-125 100q-37 29 -51 37t-33 8q-36 0 -50 -23t-14 -71v-43q0 -14 -10.5 -24.5t-24.5 -10.5h-63q-15 0 -24 11t-9 24v43q0 109 51.5 166t143.5 57q60 0 123 -49l145 -114q17 -14 37.5 -21.5t34.5 -7.5
q32 0 46.5 20t14.5 70v47q0 13 11 24t24 11h63q14 0 23.5 -10t9.5 -25v-47z" />
    <glyph glyph-name="hungarumlaut" unicode="&#x2dd;" horiz-adv-x="764" 
d="M844 1581q0 -8 -8 -16l-230 -258q-18 -20 -25 -25.5t-22 -5.5h-110q-19 0 -19 14q0 13 8 21l199 254q25 30 51 30h133q23 0 23 -14zM485 1581q0 -8 -8 -16l-229 -258q-17 -19 -25 -25t-22 -6h-111q-18 0 -18 14q0 13 8 21l199 254q25 30 51 30h133q22 0 22 -14z" />
    <glyph glyph-name="endash" unicode="&#x2013;" horiz-adv-x="870" 
d="M784 539q0 -35 -39 -35h-618q-39 0 -39 35v79q0 17 11 27t28 10h618q17 0 28 -10t11 -27v-79z" />
    <glyph glyph-name="emdash" unicode="&#x2014;" horiz-adv-x="1139" 
d="M1051 539q0 -35 -39 -35h-885q-39 0 -39 35v79q0 17 11 27t28 10h885q17 0 28 -10t11 -27v-79z" />
    <glyph glyph-name="quoteleft" unicode="&#x2018;" horiz-adv-x="381" 
d="M322 1520q0 -13 -3 -19l-75 -387q-8 -39 -41 -39h-121q-23 0 -23 23q0 10 2 16l125 387q12 39 39 39h78q19 0 19 -20z" />
    <glyph glyph-name="quoteright" unicode="&#x2019;" horiz-adv-x="381" 
d="M322 1518q0 -11 -3 -17l-124 -387q-12 -39 -39 -39h-78q-19 0 -19 21q0 12 2 18l76 387q8 39 41 39h121q23 0 23 -22z" />
    <glyph glyph-name="quotesinglbase" unicode="&#x201a;" horiz-adv-x="381" 
d="M346 242q0 -5 -4 -17l-154 -387q-9 -23 -16 -31t-22 -8h-84q-25 0 -25 25q0 10 2 14l117 387q12 39 41 39h118q27 0 27 -22z" />
    <glyph glyph-name="quotedblleft" unicode="&#x201c;" horiz-adv-x="688" 
d="M629 1520q0 -13 -2 -19l-76 -387q-8 -39 -41 -39h-121q-22 0 -22 23q0 10 2 16l125 387q11 39 38 39h78q19 0 19 -20zM322 1520q0 -13 -3 -19l-75 -387q-8 -39 -41 -39h-121q-23 0 -23 23q0 10 2 16l125 387q12 39 39 39h78q19 0 19 -20z" />
    <glyph glyph-name="quotedblright" unicode="&#x201d;" horiz-adv-x="688" 
d="M629 1520q0 -11 -2 -17l-125 -387q-11 -39 -39 -39h-78q-18 0 -18 21q0 12 2 18l75 387q9 39 41 39h121q23 0 23 -22zM322 1520q0 -11 -3 -17l-124 -387q-12 -39 -39 -39h-78q-19 0 -19 21q0 12 2 18l76 387q8 39 41 39h121q23 0 23 -22z" />
    <glyph glyph-name="quotedblbase" unicode="&#x201e;" horiz-adv-x="688" 
d="M715 242q0 -5 -4 -17l-154 -387q-9 -23 -15.5 -31t-23.5 -8h-84q-24 0 -24 25q0 10 2 14l116 387q13 39 41 39h119q27 0 27 -22zM346 242q0 -5 -4 -17l-154 -387q-9 -23 -16 -31t-22 -8h-84q-25 0 -25 25q0 10 2 14l117 387q12 39 41 39h118q27 0 27 -22z" />
    <glyph glyph-name="dagger" unicode="&#x2020;" horiz-adv-x="827" 
d="M752 1014q0 -33 -39 -33h-224v-940q0 -41 -32 -41h-117q-33 0 -33 41v940h-192q-39 0 -39 33v92q0 31 39 31h192v364q0 39 35 39h115q15 0 23.5 -11.5t8.5 -27.5v-364h224q39 0 39 -31v-92z" />
    <glyph glyph-name="daggerdbl" unicode="&#x2021;" horiz-adv-x="827" 
d="M752 584q0 -33 -39 -33h-224v-510q0 -41 -32 -41h-117q-33 0 -33 41v510h-192q-39 0 -39 33v92q0 31 39 31h192v274h-192q-39 0 -39 33v92q0 31 39 31h192v364q0 39 35 39h115q15 0 23.5 -11.5t8.5 -27.5v-364h224q39 0 39 -31v-92q0 -33 -39 -33h-224v-274h224
q39 0 39 -31v-92z" />
    <glyph glyph-name="bullet" unicode="&#x2022;" horiz-adv-x="856" 
d="M754 752q0 -89 -44 -164t-118.5 -118.5t-163.5 -43.5t-163.5 43.5t-118.5 118.5t-44 164t44 163.5t118.5 118t163.5 43.5q66 0 128 -26t104 -68.5t68 -103.5t26 -127z" />
    <glyph glyph-name="ellipsis" unicode="&#x2026;" horiz-adv-x="1241" 
d="M1122 39q0 -17 -11.5 -28t-27.5 -11h-98q-15 0 -28 11t-13 28v192q0 16 12.5 27.5t28.5 11.5h98q17 0 28 -11t11 -28v-192zM711 39q0 -17 -13 -28t-28 -11h-99q-16 0 -27.5 11.5t-11.5 27.5v192q0 15 11.5 27t27.5 12h99q16 0 28.5 -11.5t12.5 -27.5v-192zM297 39
q0 -17 -11.5 -28t-27.5 -11h-98q-17 0 -29 11t-12 28v192q0 16 12 27.5t29 11.5h98q17 0 28 -11t11 -28v-192z" />
    <glyph glyph-name="perthousand" unicode="&#x2030;" horiz-adv-x="2322" 
d="M2230 317q0 -165 -71 -248t-203 -83q-86 0 -148.5 36.5t-95.5 112t-33 182.5v191q0 167 73 249.5t204 82.5q87 0 148.5 -36.5t93.5 -110t32 -185.5v-191zM1534 317q0 -165 -71 -248t-203 -83q-86 0 -148.5 36t-95.5 110.5t-33 184.5v191q0 112 33 186t95.5 110t148.5 36
q87 0 148.5 -36.5t93.5 -110t32 -185.5v-191zM1331 1509q0 -6 -10 -26l-856 -1450q-15 -25 -23 -33t-22 -8h-107q-16 0 -16 12t10 29l856 1450q18 26 25 32.5t22 6.5h105q16 0 16 -13zM643 1016q0 -164 -71 -248t-203 -84q-86 0 -148.5 37t-95.5 112t-33 183v190
q0 167 72.5 248.5t204.5 81.5t203 -81.5t71 -248.5v-190zM2103 317v191q0 215 -147 215q-150 0 -150 -215v-191q0 -215 150 -215q147 0 147 215zM1407 317v191q0 215 -147 215q-150 0 -150 -215v-191q0 -215 150 -215q147 0 147 215zM516 1016v190q0 215 -147 215
q-150 0 -150 -215v-190q0 -215 150 -215q147 0 147 215z" />
    <glyph glyph-name="guilsinglleft" unicode="&#x2039;" horiz-adv-x="725" 
d="M614 162q0 -19 -22 -19h-119q-23 0 -43 21l-346 346q-23 23 -23 57q0 33 23 58l346 346q20 20 43 20h119q11 0 16.5 -4.5t5.5 -13.5q0 -15 -12 -27l-364 -379l364 -379q12 -12 12 -26z" />
    <glyph glyph-name="guilsinglright" unicode="&#x203a;" horiz-adv-x="725" 
d="M664 567q0 -34 -23 -57l-346 -346q-20 -21 -43 -21h-119q-22 0 -22 19q0 14 12 26l364 379l-364 379q-12 12 -12 27q0 18 22 18h119q23 0 43 -20l346 -346q23 -25 23 -58z" />
    <glyph glyph-name="uni2044" unicode="&#x2044;" horiz-adv-x="522" 
d="M778 1509q0 -6 -10 -26l-856 -1450q-15 -25 -23 -33t-22 -8h-100q-21 0 -21 16q0 14 8 25l856 1450q18 26 25 32.5t22 6.5h105q16 0 16 -13z" />
    <glyph glyph-name="Euro" unicode="&#x20ac;" 
d="M1135 53q0 -34 -41 -41q-74 -14 -136 -20t-172 -6q-95 0 -190.5 28.5t-178 92.5t-136.5 172t-66 264h-68q-15 0 -28 12t-13 29v57q0 17 12 29t29 12h66v166h-66q-15 0 -28 12t-13 29v57q0 17 12 29t29 12h68q11 153 66 260.5t137 171t176.5 90.5t191.5 27
q91 0 157.5 -8.5t154.5 -24.5q32 -4 32 -26v-105q0 -22 -24 -22h-6q-222 18 -312 18q-154 0 -259.5 -89.5t-125.5 -291.5h594q16 0 25.5 -9t9.5 -24q0 -2 -0.5 -4t-1.5 -4l-14 -57q-11 -41 -41 -41h-576v-166h527q30 0 30 -31q0 -2 -0.5 -4.5t-1.5 -5.5l-14 -57
q-11 -41 -41 -41h-498q11 -138 67 -225.5t139 -125.5t181 -38q109 0 306 16h8q33 0 33 -33v-84z" />
    <glyph glyph-name="trademark" unicode="&#x2122;" horiz-adv-x="1618" 
d="M1530 709q0 -21 -21 -21h-84q-20 0 -20 21v491q0 89 -13.5 131.5t-57.5 61t-144 18.5v-702q0 -21 -21 -21h-86q-20 0 -20 21v702q-103 0 -217 -12v-690q0 -21 -19 -21h-84q-20 0 -20 21v759q0 21 7 29t24 10q191 21 372 21q115 0 189 -13t121 -47t70.5 -98t23.5 -170
v-491zM649 1440q0 -29 -35 -29h-198v-690q0 -11 -10 -22t-23 -11h-66q-12 0 -21 10.5t-9 22.5v690h-203q-33 0 -33 29v51q0 14 10.5 22.5t22.5 8.5h530q14 0 24.5 -8.5t10.5 -22.5v-51z" />
    <glyph glyph-name="uni2126" unicode="&#x2126;" horiz-adv-x="1573" 
d="M496 160q-108 67 -165 130q-87 96 -134 225.5t-47 286.5q0 196 79.5 360.5t231 252.5t347.5 88q336 0 516 -254q131 -186 131 -448q0 -168 -54 -297.5t-141 -222.5q-53 -58 -149 -121l364 6v-166h-575v177q80 40 124 78q72 61 122 145t75.5 179t25.5 198
q0 138 -49.5 277.5t-150 212.5t-243.5 73q-191 0 -296 -120q-146 -169 -146 -440q0 -217 91 -372.5t251 -227.5v-180h-577v168z" />
    <glyph glyph-name="partialdiff" unicode="&#x2202;" horiz-adv-x="1012" 
d="M426 1138l-135 60q70 157 168 225t192 68q76 0 137.5 -39.5t92.5 -90.5q47 -79 69.5 -187t22.5 -248q0 -288 -86.5 -512.5t-233.5 -331.5t-289 -107q-137 0 -222.5 91t-85.5 256q0 226 153 387q197 207 649 215q-4 168 -24 256t-68 135.5t-113 47.5q-62 0 -121 -49.5
t-106 -175.5zM854 796q-244 -14 -357.5 -68t-187 -176.5t-73.5 -248.5q0 -83 51 -137t119 -54q75 0 160 55q117 76 190.5 234.5t97.5 394.5z" />
    <glyph glyph-name="uni2206" unicode="&#x2206;" horiz-adv-x="1253" 
d="M1227 0h-1200l628 1386zM991 82l-399 967l-440 -967h839z" />
    <glyph glyph-name="product" unicode="&#x220f;" horiz-adv-x="1686" 
d="M161 1491h1362v-1922h-191v1748h-978v-1748h-193v1922z" />
    <glyph glyph-name="summation" unicode="&#x2211;" horiz-adv-x="1460" 
d="M139 1491h1237v-164h-988l607 -775l-649 -822h1040v-161h-1264v187l620 788l-603 772v175z" />
    <glyph glyph-name="minus" unicode="&#x2212;" 
d="M1077 760q0 -33 -41 -33h-850q-41 0 -41 33v82q0 32 41 32h850q41 0 41 -32v-82z" />
    <glyph glyph-name="fraction" unicode="&#x2215;" horiz-adv-x="522" 
d="M778 1509q0 -6 -10 -26l-856 -1450q-15 -25 -23 -33t-22 -8h-100q-21 0 -21 16q0 14 8 25l856 1450q18 26 25 32.5t22 6.5h105q16 0 16 -13z" />
    <glyph glyph-name="periodcentered" unicode="&#x2219;" horiz-adv-x="438" 
d="M307 707q0 -18 -11.5 -29.5t-27.5 -11.5h-98q-15 0 -27 12t-12 29v190q0 16 11 27.5t28 11.5h98q16 0 27.5 -10.5t11.5 -28.5v-190z" />
    <glyph glyph-name="radical" unicode="&#x221a;" horiz-adv-x="1124" 
d="M1124 1870l-311 -1948l-496 1022l-198 -92l-35 63l301 152l403 -823h5l258 1626h73z" />
    <glyph glyph-name="infinity" unicode="&#x221e;" horiz-adv-x="1460" 
d="M689 812q105 132 164 174q80 58 169 58q105 0 196.5 -76t91.5 -245q0 -118 -34 -185.5t-106 -108.5t-148 -41q-89 0 -169 57q-59 43 -164 175q-136 -171 -289 -171q-101 0 -173.5 76.5t-72.5 190.5q0 113 72.5 190t173.5 77q153 0 289 -171zM758 717q87 -135 159 -185
q46 -33 103 -33q76 0 127.5 56t51.5 158q0 106 -52.5 162t-130.5 56q-49 0 -92 -28q-58 -39 -166 -186zM620 716q-80 100 -128 128.5t-92 28.5q-58 0 -96.5 -41t-38.5 -113q0 -71 40 -113.5t97 -42.5q101 0 218 153z" />
    <glyph glyph-name="integral" unicode="&#x222b;" horiz-adv-x="561" 
d="M561 1755q0 -29 -12.5 -53t-34 -36.5t-47.5 -12.5q-36 0 -76 35q-20 20 -39 20q-41 0 -41 -63q0 -46 11 -146q18 -204 27 -371t9 -294l-2 -121l-14 -471q-6 -190 -49 -320q-22 -67 -68 -104t-106 -37q-54 0 -86.5 33.5t-32.5 87.5q0 44 25 71t65 27q42 0 70 -33
q13 -14 24 -22t25 -8q39 0 39 61q0 37 -10 119q-20 170 -29 395q-3 104 -6 229q-2 70 -2 154l16 553q6 191 66 317q19 40 63.5 69.5t87.5 29.5q31 0 61.5 -15t48 -41t17.5 -53z" />
    <glyph glyph-name="approxequal" unicode="&#x2248;" horiz-adv-x="1124" 
d="M51 738v205q106 120 278 120q60 0 125.5 -17t188.5 -70q69 -30 103.5 -38.5t69.5 -8.5q65 0 134.5 39t123.5 98v-212q-64 -60 -129.5 -87t-147.5 -27q-60 0 -114 13.5t-173 67t-198 53.5q-64 0 -120.5 -27.5t-140.5 -108.5zM51 376v205q106 120 278 120q60 0 125.5 -17
t188.5 -70q69 -29 103.5 -38t69.5 -9q65 0 134.5 39t123.5 98v-212q-64 -60 -129.5 -87t-147.5 -27q-60 0 -114 14t-173 67t-198 53q-64 0 -120.5 -27.5t-140.5 -108.5z" />
    <glyph glyph-name="notequal" unicode="&#x2260;" horiz-adv-x="1124" 
d="M495 417l-194 -445h-136l195 445h-282v168h356l122 277h-478v168h551l196 444h134l-195 -444h282v-168h-356l-121 -277h477v-168h-551z" />
    <glyph glyph-name="lessequal" unicode="&#x2264;" horiz-adv-x="1124" 
d="M77 762v168l971 410v-180l-770 -315l770 -319v-179zM1046 106h-968v167h968v-167z" />
    <glyph glyph-name="greaterequal" unicode="&#x2265;" horiz-adv-x="1124" 
d="M1048 762l-971 -415v179l769 319l-769 315v180l971 -410v-168zM1046 106h-968v167h968v-167z" />
    <glyph glyph-name="lozenge" unicode="&#x25ca;" horiz-adv-x="1012" 
d="M549 1422l418 -713l-418 -709h-111l-391 709l391 713h111zM495 1325l-340 -616l340 -615l359 615z" />
    <glyph glyph-name="uniF001" unicode="&#xf001;" horiz-adv-x="1214" 
d="M1061 1348q0 -17 -13 -29t-28 -12h-105q-15 0 -28 12t-13 29v163q0 17 12 29t29 12h105q17 0 29 -12t12 -29v-163zM1057 41q0 -17 -13 -29t-28 -12h-98q-17 0 -29 12t-12 29v1044q0 17 11.5 29t29.5 12h98q17 0 29 -12t12 -29v-1044zM672 1020q0 -17 -11 -27t-28 -10
h-320v-942q0 -18 -12 -29.5t-29 -11.5h-98q-15 0 -28 12t-13 29v1229q0 157 80.5 220.5t235.5 63.5q102 0 180 -12q41 -5 41 -35v-69q0 -29 -43 -29h-178q-59 0 -87 -9.5t-38.5 -39.5t-10.5 -90v-144h320q18 0 28.5 -9.5t10.5 -26.5v-70z" />
    <glyph glyph-name="uniF001" unicode="&#xfb01;" horiz-adv-x="1214" 
d="M1061 1348q0 -17 -13 -29t-28 -12h-105q-15 0 -28 12t-13 29v163q0 17 12 29t29 12h105q17 0 29 -12t12 -29v-163zM1057 41q0 -17 -13 -29t-28 -12h-98q-17 0 -29 12t-12 29v1044q0 17 11.5 29t29.5 12h98q17 0 29 -12t12 -29v-1044zM672 1020q0 -17 -11 -27t-28 -10
h-320v-942q0 -18 -12 -29.5t-29 -11.5h-98q-15 0 -28 12t-13 29v1229q0 157 80.5 220.5t235.5 63.5q102 0 180 -12q41 -5 41 -35v-69q0 -29 -43 -29h-178q-59 0 -87 -9.5t-38.5 -39.5t-10.5 -90v-144h320q18 0 28.5 -9.5t10.5 -26.5v-70z" />
    <glyph glyph-name="uniF002" unicode="&#xf002;" horiz-adv-x="1210" 
d="M1057 41q0 -17 -13 -29t-28 -12h-98q-17 0 -29 12t-12 29v1458q0 17 11.5 29t29.5 12h98q17 0 29 -12t12 -29v-1458zM672 1020q0 -17 -11 -27t-28 -10h-320v-942q0 -18 -12 -29.5t-29 -11.5h-98q-15 0 -28 12t-13 29v1229q0 157 80.5 220.5t235.5 63.5q102 0 180 -12
q41 -5 41 -35v-69q0 -29 -43 -29h-178q-59 0 -87 -9.5t-38.5 -39.5t-10.5 -90v-144h320q18 0 28.5 -9.5t10.5 -26.5v-70z" />
    <glyph glyph-name="uniF002" unicode="&#xfb02;" horiz-adv-x="1210" 
d="M1057 41q0 -17 -13 -29t-28 -12h-98q-17 0 -29 12t-12 29v1458q0 17 11.5 29t29.5 12h98q17 0 29 -12t12 -29v-1458zM672 1020q0 -17 -11 -27t-28 -10h-320v-942q0 -18 -12 -29.5t-29 -11.5h-98q-15 0 -28 12t-13 29v1229q0 157 80.5 220.5t235.5 63.5q102 0 180 -12
q41 -5 41 -35v-69q0 -29 -43 -29h-178q-59 0 -87 -9.5t-38.5 -39.5t-10.5 -90v-144h320q18 0 28.5 -9.5t10.5 -26.5v-70z" />
    <glyph glyph-name="uniF006" unicode="&#xf006;" horiz-adv-x="1413" 
d="M505 916v-916h-180v916h-280v146h1324v-146h-242v-916h-180v916h-442z" />
    </font>
</defs>
</svg>
